<?xml version="1.0" encoding="utf-8"?>
<!-- Generator: Adobe Illustrator 19.1.1, SVG Export Plug-In . SVG Version: 6.00 Build 0)  -->
<svg version="1.1" id="liander-in-kaart" xmlns="http://www.w3.org/2000/svg" xmlns:xlink="http://www.w3.org/1999/xlink" x="0px"
	 y="0px" viewBox="-34 88.8 558 657" style="enable-background:new -34 88.8 558 657;" xml:space="preserve">
<style type="text/css">
	.st0{fill:#DEDEDE;}
	.st1{fill:#821E7D;}
	.st2{fill:none;stroke:#008CBE;stroke-miterlimit:22.9256;}
	.st3{fill:#008CBE;}
</style>
<g id="Grijze_ondergrond">
	<g>
		<path class="st0" d="M324.4,320.7c-2.2-3.5-6.9-1.9-11-2.9c-3.5-0.8-6.7-2.9-10.2-3.5c-2.6-0.4-1.4-1-2.8-2
			c-0.7-0.6-7.2,1.4-9.8,2.4c-0.6,0.2-1.1,0.4-1.2,0.5c-1.1,0.8-1.7,1.9-2.8,2.6c-2.4,2-4.7,3.9-6.7,6.1c-1.4,1.6-4.4,0-6.2,0.5
			l-0.1,0.1c-0.4,2.2-1.3,3.7-2,5.7c-1,2.6,0.5,5.1-3.6,5.1c-1.3,0.8-1.2,1.4-1.8,2.5c-0.6,1-1.6,0.2-2.2,0.7
			c-2,1.8-3.9,2.9-6.3,4.4c-2.3,1.4-8.1,4.5-12.1,7.5c-1.9,1.4-3.5,3-3.7,4.2l-7.5,3.9l-8,5.6c0,2,2.3,3.5,2.3,5.7
			c-0.2,0.5-1,1.4-0.7,2c0.2,0.5,0.7,0.7,1,1.1c0.4,0.6,0,1.6,0.5,2.2c0.2,0.2,1,0.5,1.3,0.4c0.4-0.1,0.6-0.4,1-0.5
			c0.5-0.1,0.7-0.2,1.2-0.2l0.5-0.4c1.1-0.4,4.7-1,5.7-0.2c1.7,1.2,1.7,1.7,3.9,1.7c3.8,0,3.8,2.4,6.6,3.5c1.9,0.7,2.6,1.1,4.1,2.3
			c0.2,0.1,0.4,0.4,0.6,0.6c0.7,1.6,3.5,3.3,4.9,4.5l3.8,3.1c0.7,0.6,0.6,1.6,1.1,2.2c0.5,0.7,2,0.1,2.9,0.8
			c1.1,0.7,2.6-0.4,3.5-1.1c2.2-1.8,5.1-0.7,7.2-2c1.9-1.9,5.6,0.1,6-3.6c0.2-2.2,1.9-3.2,1.6-5.4c-0.2-1.1,1-2.5,1.3-3.7
			c0.7-2.4-1-2.8-2.3-4.2c-1.1-1.2,3.3-5.1,4.2-6c0.6-0.6,2.3,1.1,3.5,0.8c1.1-0.2,2.3-1,3.3-1.8c2.3-1.9,4.4-4.8,6-6.6l8.5-4.2
			c1.9-1,2.8,2.5,5.6,0.5c3.8-2.6,5.7-7.5,8.5-11.1c1.3-1.8,4.4-7.7,5-9.8c0.4-1.6-0.5-3.5,0-5C330.4,325,326.7,324.2,324.4,320.7z"
			/>
		<path class="st0" d="M516.1,177.7c-1.8-1.6-1.6-1.6-0.8-3.6c0.4-1-0.5-1.2-0.1-2.2c0-0.7-0.6-5.4-1.1-5.6
			c-1.3-0.6-2.9,0.4-3.9-1.2c-0.7-1.1-2.2-0.5-3.2-0.7c-2.6-0.6-5.9-1.2-7.9-3c-1-0.8-1.7-1.9-1.9-3.2c-0.4-2,0.2-5.7,1.7-6.9
			c0.2-0.2,1.2-1.8,0.5-1.6c-1.6,0.4-3,1.7-4.8,1.8c-1.3,0-5.7,0-6.2-1.3c-0.2-0.6-5.7-2.6-6.3-2.5c-2.3,0.7-5.1-3-6.6-4.7
			c-1.4-1.3-3.2-1.9-3.2-4.2c0-1.2,0.5-2.6-0.1-3.6c-0.8-1.6-0.5-5.9-1.4-6.6c-0.2-0.1-0.5-0.4-0.6-0.5c-1-0.8-1-1.9-0.8-3.3
			c0.2-1.7,1.8-4.3,0.2-5.4c-2-1.3-3.5-4.5-4.9-1.4c-1.9,4.1,0.8-4.7-3.7-2.4c-0.7,0.4-1.1,2.2-1.9,2c-0.8-0.1-2.4-1.2-3.3-1.6
			c-3.1-0.5-3.2-1.9-6.2-0.7c-2.4,0.8-5,0.1-7.1,1c-3.6,1.4-8.8,2.6-11.4,4.8c-0.6,0.5-3.3,1.4-5.9,2c-1.4,0.4-2.8,0.7-3.2,0.8
			c-0.4,0.1-0.6,0.1-1,0.1c-1.7,0.1-3.1-0.5-4.7-0.4c-2.2,0.2-4.7,1-6.6,1.7c-3.7,1.3-10.5,0.7-13.4,3.5c-0.6,0.6-1.9,2.8-2,2.9
			c-3,1.8-7.1-6.3-11.7-3.8c-2,1.1-2.6,0.5-4.7,0.5c0,1.6,3.7,3.8,3.6,4.3c-0.4,1.8-3.9-1.9-4.3-2.3c-1.3-1.7-1.2,1.1-0.2,1.8
			c2.3,1.8-1.3,3.5,1.4,3.8c2.2,0.2-0.4,1.2-1.1,1.7c-1,0.7,6,1,6.2,1.6c0.6,1.8-0.4,2.4-1.7,2.5c-2,0.2-5.1-0.8-5.3-0.7
			c-2.5,1.2-0.4,2.9-0.4,4.4c-3.2,0.5-2.8-9.4-4.3-11.4c-1.2-1.4,0.5-3.5,1-4.9c0.7-1.7-4.5,0.4-5.7,0.5c-1.1-0.2-2.9-1.6-3.9-0.8
			c-1.1,0.6-1.9,1.9-3.3,0.7c-0.7-0.6-6.7,0.4-8,0.7c-2.3,0.5-3.1,1.8-5.9,1.8c-3.2,0-5.3,2.2-9,2c-1.3,0-1.8-1.8-2.3-1.7
			c-0.8,0.2-2.3,2.5-3.1,3.2c-0.2,0.2-0.6,0.6-1.1,0.8c-1.4,1.3-3.6,3-4.7,3.2c-1.7,1.4-3.7,0.2-5.1,1.1c-1.8,1.1-3.5,2.8-5.5,3.6
			c-1.1,0.5-2,1-2.9,1.4c-2.9,1.6-5.1,3-8.8,3c-1.1,0-1.6,1.3-2.4,1.8c-0.8,0.4-2.3,0-2.9,0.7c-2,2.4-5.3,4.2-7.7,6.6
			c-1.1,1.1-1.6,3.3-2.8,4.5c-0.4,0.4-0.8,0.6-1.4,0.6c-1.4,1-4.1,2.4-5.1,3.7c-1.1,1.3-2.3,0.7-3.2,1.9c-0.4,0.5-1.1,2.3-1.3,2.4
			c-1.7,0.6-1.4,0.7-2.4,2.3l-0.4,0.6l-2,3.5c-0.7,1.2-0.2,2.2-1,3.3c-0.5,0.8-2.3,2.3-1.1,3c1.4,0.8,0.5,2.4,0,3.7
			c-0.1,0.1-0.1,0.4-0.1,0.5c-0.5,1.7-0.4,3.3-0.4,5.1c-0.2,1.6-0.6,3.2-2.2,3.6c-2.4,0.7-1.2,1.4-1.7,3.2c-0.1,0.5-1,2-0.8,2.3
			l1.6,2.2c0.6,0.8,1.8,4.1-0.4,3.1c-0.5-0.2-1.6-2-1.7-2c-1.2-0.1-0.5,1.6-0.2,2c0.8,1.3,1.6,1.3,0.7,2.9c-1.2,2,2.3,1.7,2.5,2.4
			c0.5,1.4-0.8,3.5,0.5,4.7c0.8,0.7,1.4,1.6,1.6,2.5c0,0.5-0.1,1.1-0.5,1.7c-0.8,1.4-0.8,0.6-0.7,2.4c0,1.3,1.1,1.9,0.8,3.3
			c-0.1,0.8-0.6,1.4,0,2.4c1.4,2.3-1.2,2.2,0.1,4.1c0.5,0.7-2,0.8-2,2.2c0,1.6,1.7,2.5,1.7,4.3c0.1,3.8-0.6,3.2-3.6,4.1
			c-1,0.2-2,2.3-3.1,3c-2,1.4-0.6,1,0,3c0.5,1.9,1.6,1.2,3,2.3c1.6,1.1,2.4,3.2,3.9,4.3c0.5,0.4,1.9,0.5,3.3,0.5
			c1.2,0,2.4-0.2,2.6-0.7c0.5-0.7,1.8,0.1,2.5,0.1c2.4,0.5,3.6,1,5.4,2.6c1.3,1.2,3.5-0.4,4.4,0.5c0.6,0.6,0.4,1.8,1.7,1.6
			c4.4-1,1.4-6.2,7.2-4.5c1,0.2,3.3-1.4,4.7-1.6c0.5,0,1,0.2,1.1,1c0.6,3.5,7.8,0.7,7.8,3.7c-2.3,1.1-5.1,1.1-7.3,2.5
			c-1.9,1.2-5.1,7.3-6.1,9.4c-1,1.9-1.4,4.5-2.4,6.3c-1.4,2.6-0.8,6-1.1,9.1c0,3-0.2,6.2-0.2,9.2c0,1.3,0.1,2.6,0.4,3.9
			c0.1,0.5,1.4,1.3,1.8,1.9c0.2,0.2,0.4,0.6,0.6,0.8c0.8,1.2,1.9,2.4,2.8,3.6c0.7,1,2.9,4.5,4.2,4.7c2.8,0.1,5.7-0.7,8.5-0.7
			l11.6,0.4c1.4,0,4.4-1.1,3.8,0.8c-0.2,0.8-0.5,2.5-0.5,3.3c0,1,2.4,2.5,1.1,3.5c-0.5,0.4,0.5,3.8,1.1,4.4c0.8,1,1.4,2,1.7,3.2
			c-0.1,1.9,0.1,3.9,0.1,6c0,1.1,0,2.2-0.2,3.1c-0.6,2.8-1.9,5.6-3,8.1c-0.8,1.9-2.9,2.5-3.2,4.8c-0.4,2.3-2.8,5.1-4.5,6.8
			c-0.6,0.7-2.6,2.3-4.3,3.5c-0.7,0.5-1.4,0.8-1.8,1c-2.3,0.7-2.6,2.8-4.3,3.6c-1,0.5-2.4,0.6-3.5,1.1c-0.4,0.1-0.6,0.4-1,0.5
			c-1.2,0.7-2.4,1.6-3.6,2.3c-1.3,0.7-4.5,2.4-5,3.8c-0.6,1.9-3.2,4.5-5.5,6c-0.6,0.4-1.1,0.7-1.6,1c-1.2,1.2-1.7,3.7-2.4,6.1
			c-0.8,3.3-1.9,6.7-5.1,6.7c-1.3,0-3.3-0.2-4.4,0.6c-0.4,0.4-0.7,0.6-1.2,0.7c-1.1,0.5-2.4,0.6-3.8,1.3c-1.6,0.7-4.7,1.7-6.7,1.1
			c-0.6-0.1-1.1-0.5-1.4-1c-1.6-1.3-2.5-4.2-4.8-4.2c-0.6,0-1.9-0.2-3.2-0.6c-1.1-0.4-2.2-0.7-2.5-1.1c-0.1-0.1-0.2-0.2-0.5-0.5
			c-0.8-0.8-2-2.3-1.8-3c0.4-1.6-0.1-1.3-1.2-1.6c-0.2-0.1-0.5-0.1-0.8-0.4c-0.1-1.2-3.5-1.2-3.9-3.3c-0.5-0.1-1.4,0.6-2.2,0.7
			c-0.5,0-0.8,0.1-1.3,0.1c-0.7,0-1.4,0-2.2,0c-1.7,0.4-5.9,3-6.8,1.6c-1.4-2.2-2.4-3-4.4-4.5c-1.1-0.8-2.5-0.6-3.2-1.3
			c-0.5-0.5-0.5-1.2-1.2-1.6c-1.4-0.6-3.7-1.2-5.1-0.5c-1.8,0.8-2.6,0.6-3.1,0c-0.6-0.8-0.5-2.5-1.7-2.5c-1.9,0-2.5,1.3-4.4,0.2
			c-1.9-1.1-0.7-1.8-2.5-2.5c-0.1,0-0.2-0.1-0.2-0.1c-2.6-1.1,0.6-1.7,0.6-2.6c-0.4-0.1-3.7-2.6-1.7-2.4c1.2,0.2,2,1.4,3.1,1.4
			c3.6,0.2,1.7,1.2,3.9-1.9c1-1.3,2.2-2.6,2.9-4.2c0.5-1.1,1.3-1.8,2-2.4c1.1-0.8,2.3-1.6,3.1-3c0.6-1.2,2.9-1.4,2.9-2.8
			c-0.6,0-0.8,0.6-1.6,0.5c-0.7,0-1.3-0.2-2.2-0.2c-1.1,0-2.4-2.5-2.3-3.6c0.1-1.1,1.3-1.7,1.3-2.6c-0.8,0-1.7,0.7-2.6,0.7
			c-0.5-1.7,1.2-0.5,1.4-1.6c3.1,0,1.7-1.4,1.4-3.2c-0.1-0.8,0-1.3,0.1-1.6c0.5-0.7,1.7,0.6,2.3-1.3c0.2-1,1.8-1.8,1-2.9
			c-1.1-1.3-2.2-2.2-2.4-3.9c0-0.1,0-0.1,0-0.2c-0.5-2.5-3.2-5.6-3.1-7.8c-2.2-2.4-1.2-9.6-2-10.4c-0.5-0.6-0.8-1.3-1-2
			c-0.2-1.1,0-2.4,0.6-3.3c0.5-1,1.3-1.7,2.4-2c0.4-0.1,1.9-1.1,1.9-1c0.6,0.1,0.8,2.2,1.9,1.9c0-0.1,0.1-0.1,0.1-0.2
			c0.1,0,0.7-1.2,1.9-1.6c1.8-0.5,1.8,0.2,2.8,1.1l0.2-2.9c0.4,0.1,1.4,0.2,1.7-0.2c0.1-0.2-0.5-0.7-0.6-1.1
			c-0.2-0.6,0.2-1.3-0.2-1.8c-0.2-0.2-0.4-0.5-0.6-0.6c-0.2-0.1-0.7-0.2-0.7-0.5c0.2,0,0.4-0.2,0.6-0.2c0-0.1,0-0.1,0-0.1
			c-0.1,0-0.1,0-0.1-0.1c-0.6-0.1-1.2-1.2-1.2-1.8c2.3,0,3.6-2.3,5.5-3.3c0.8-0.5,1.6-0.8,2.4-1.3c0.8-0.4,1.8-0.5,2.6-0.8l2.4-0.5
			c-0.1,0.7,0.8,2.2,1.2,2.9c0.4,1,0.4,1.7,0.4,2.6c0.7,0,1.4-0.8,2.2-1.1c1.3-0.5,2.8-0.8,4.2-1.2l2.8,1.1c1.4-0.8,4.1-4.5,4.9-4.7
			c0-0.6-1.3-1.6-1.4-2.4c0-0.8,0.2-5.7-0.1-6c-0.2-0.1-1.9-1.1-3.1-1.7c-0.6-0.4-1.1-0.5-1.2-0.6c-2.4-0.5-7.8-1.7-9.1,0.2
			c-1.7,2.4-1.3,2.6-3.5,2.2c-0.4-0.1-0.7-0.1-1.1-0.2c-0.8-0.2-3.1-2.3-4.2-4.1c-0.7-1.2-1-2.2,0-2.4v-0.1c-1.4-0.5-2-0.8-2.3-1.3
			c-0.2-0.6,0-1.6,0-3.3c0-3.5,1-8,1.7-11.4c-0.2-2.4-2.2-3.5-3-5.5c-0.7-1.8-1.4-4.5-2.5-6c-0.7-1-1.7-1.8-2.4-2.8
			c-0.8-1.1-0.4-3-1.1-4.1c-0.4-0.5-1.4-0.4-1.6-1.1c-0.1-0.8,0.2-1.9,0.1-2.5c-0.1-0.6-2.4,0.4-2.6,0.5c-1.7,1.3-1.4-0.2-2.9-0.2
			c-1,0-1.4,0.5-2.5,0.6c-4.8,0-1.9,5-5.6,6.6l-5.6,2.4l-3.5,1.4c-2.2,1-3.1-3-5.4-3.8c-1.3-0.5-2.5-1.3-3.5-2.4
			c-1.7-1.7-2.6-3.9-2.3-6.5c0.1-1.2,1.9-4.3,1.4-5.1c-1.1,0-1.2,2.3-2.5,2.2c-1-0.1-0.2-1.9-1.2-1.9c-2,0.1-3.7-0.2-5.6-0.2
			c-3.2,0-2.8,14.2-3.5,16.1c-0.1,0.6-0.1,1.1-0.1,1.4c-0.1,1.3-0.4,2.3-1.2,3.8c-0.7,1.6-1.1,2.9-1.1,4.5c0,3.6-1.9,6.2-3,9.4
			c-0.7,2.3,1.1,3.2-1.6,3.6c0,2.2-0.7,5-1.7,6.9c-0.1,0.5-0.2,1-0.4,1.4c-0.8,2.4-2.2,4.4-2.2,6.9c0,3,0.5,5.7-0.7,8.6
			c-1,2.4-0.7,2.5-0.4,5.1c0.4,2.4-1.3,4.3-1.3,6.7c0,1,0.2,2.5,0.2,3.3c-0.1,1.2-1.1,2-1.4,3.2c-0.5,2.4-0.7,4.8-1,7.3
			c-0.2,2.6-0.6,5.1-1.2,7.7c-0.1,0.7-0.4,1.4-0.5,2.2c-0.4,2.5-0.7,5.1-1.7,7.4c-0.4,1-1,1.8-1.6,2.6c-0.5,0.7-2.4,3.8-2.4,4.5
			c0.8,0,6.7-2,5.9-0.6c-0.8,1.3-5,1.9-6.3,2.3c-0.7,0.1,0.2,3.8,0.1,4.7c0,0.1,0,0.4-0.1,0.5c-0.4,2.6-1.6,6.1-2.6,8.5
			c-1.7,3.9-2.9,11.4-6.5,13.9c-0.5,0.7-1,1.6-1.4,2.4c-2.2,3.8-3.6,8.4-6,12c-2.6,3.9-4.3,8.6-6.9,12.6c-1.1,1.7-0.8,4.5-2.8,5.4
			c-0.5,0.7-1,1.4-1.4,2c-2.9,4.3-6.1,9.1-10,12.3c-0.6,0.5-1.2,1-1.8,1.3c-1.2,0.8-1.3,3.3-2.4,3.7c-3.1,1.1-1.2,2.3-2.8,3.8
			c-0.5,0.5-1.4-0.1-1.8,0.8c-0.4,1.1-1.9,3.2-3,3.6c-1.4,1.2-2.8,2.6-4.1,4.1c-0.8,1-1.8,2-2.5,3c-1.4,1.9-3.6,3.3-4.7,5.5
			c-0.7,1.4-1.7,3.1-2.8,4.5c-1.6,2-3.7,3.2-6.6,1.8c-3.6-1.8-4.8,0.2-7.7,0.1c-2-0.1-1,1.9-1.7,2.9c-0.4,0.5-1.4,1.2-1.4,1.8
			c-0.1,1.1,3.5,3.3,0.7,4.3c-1.6,1.7-2,5-3.6,6.2c0.4,0.2,1.6,0.2,2.9,0.1c3.5-0.2,8.5-0.8,5.7,2.3c-1.7,1.9-1,1.8-1.8,3.8
			c-1.2,2.9,0.5,2.8,1.8,5.5c1.6,3.2,1.4,3.3,1.8,6.8c0,0,0.6,0.1,1.3,0.2c0.7,0.1,1.6,0.4,2,0.7c1.4,1.2,0.4,2.2,2.4,2.4
			c1.6,0.2,1.9,2.4,3,1.8c0.6-0.4,1.7-1.3,2.4-1.2c0.6,0.1,1.1,0.5,1.4,0.8c1.2,1.1,1.9,2.8,3.5,3.7c2-0.2,2.4,0.8,4.3,0.7
			c1.1-0.1,1.7,2.9,2.9,3.5c0.4,0.2,1.3,0.2,1.7,0.6c0.1,0.1,0.1,0.2,0,0.5c-0.7,1.3-1.4,1.4,0.4,3c3.8,3.1,9.4,3,13.3,6.2
			c1.3,1.2,3.3,2.3,5.5,3.2c1.6,0.7,3.2,1.4,4.5,2.2c1.2,0.4,2.3,1.3,3.3,1.3c1.3,0,2.6,0,3.9,0.4c1.7,0.4,3.9,1,5.3,1.7
			c1.4,0.8,2.6,1.1,3.7,1.1c2.5,0,4.2-1.6,7.5-2.4c1-0.2,2.5-0.1,3.2-0.6c1.2-1,0.8-2.3,2.4-1c1.3,1.1,3.2-1.8,2.9,0.1
			c-0.1,0.6-0.2,1-0.4,1.3c-0.4,0.7-1,1.1-2,1.4c-2.3,0.8-3.6,2.6-6.1,3c-3.7,1.4-8.7,2.5-12.8,2.5c-3.9,0-4.7-2.4-7.7-3.5
			c-4.2-1.4-7.1,6.1-10.2,9c-0.5,0.5-1,0.8-1.4,1c-3.1,1.1-6.2,1.9-9.4,1.7c-1.7,0.5-3.3,1.1-4.3,2.5c-1,1.6-2.3,0.2-3.5,0l-1.3-0.2
			l-7.7-1.6c-2-0.5-6.1-3.8-8-3.8c-0.5,0.6-0.8,1.6-1.3,2.3c-0.4,0.6-2,1.2-1.9,1.6c0.4,1.3,2.5,1.9,2.5,3.3c0,5.4,7.7,1.2,8.8,2.2
			c0,3.5-2.9,2.5-5.5,3.1c-4.9,1-4.1-2.5-8.1-2.3c-2.2,0.1-3.3,1.3-5.3,2.2c-2.2,0.8-5.7,1-7.2,2c-2.6,2.2-1.7,4.1,1.7,4.1
			c0.4,0.7,2.8,1.9,2.8,2.3c1.6,1.1-0.8,2.4,2.6,3.7c1.6,0.6,1.4,2.9,2.8,4.2c1.1,2,5,1.6,7.1,1.6c2.2,0,3.2,1.9,4.9,0.7
			c1.1-0.8,1.6-0.1,2.6,0.8c1.2,0.8-0.5,1.8-0.1,3.2c0.1,0.7,4.2,2.3,5,3c0.2,0.2,0.5,0.5,0.6,1c0.7,1.9,0.6,5.6,0.6,7.1
			c0,1.2,1,3.8,0.7,4.5c-2.8,0.7-5.4-2.2-7.7-0.2c-3.7,3.2-5.3,0-8.3-1.2c-2.4-1-3.5-0.6-3.6-3.6c0-0.7-5.9-3.8-3.7-6.2
			c0-3-2.5-5.5-4.8-7.4c-0.2-0.2-0.6-0.5-1.1-0.6c-1.9-0.8-4.9-1-6.6-1.7c-0.4-0.1-0.6-0.4-0.8-0.5c-1.6-1.4-2.9,1.3-3.8-0.1
			c-1.6-2.2-0.4-4.3-3.6-4.3c-1.8,0-8.3,3.1-9.4,0.4c-0.7-1.8-3.7-0.5-5.1-0.4c-1.8,0.2-2.6,2-4.4,1.1c-1.3-0.6-2.8-1.9-3.8-1.3
			c-1.8,1-2.4,2.9-3.5,4.3c-0.6,1-1.4,1.7-2.6,2c-1,0.2-2.6-2.5-3.3-3.9c-0.1-0.4-0.4-0.6-0.4-0.7c-0.6-1-0.5-3-1.4-3.5
			c-1.8-0.8-2.6-1-3.9-2.5c-1.1-1.4-2.6-3.6-1.3-5.4c-0.2-0.2-0.5-0.4-0.1-0.5c-0.6,0.2-2.3-0.7-3.2-0.8c-4.5-0.4-7.5,0.7-11.2,3
			c-1.8,1.1-4.2,1.6-5.6,2.6c-1,0.7-2.4,2-3.2,3c-1.8,1.8-3.7,0.5-4.5,3.7c-1.2,4.7,4.8,5.3,6.7,8.3c1.1,1.6,2.5,2.9,3.7,4.5
			c1,1.3,1.2,3.7,2.6,4.7c0.5,1.2,4.1,4.3,5.3,4.8c0.4,0.1,2.9,0.8,3.2,0.7c0.1-0.1,0-2.4,0.7-3c0.7,0.6,0.7,2,1.9,2.8
			c1.3,0.8,2.3-0.8,3.1-1.6c2.2-1.7,4.1,0.8,4.8-2.4c0.2-1.1,2.5-3,2.2-0.6c-0.5,3-1.3,2.4,1.2,4.4c0.8,0.6,2.2-0.1,2.2-1.2
			c0-1-1.6-1.7-1.6-2.6c0.7-0.1,1.4-4.3,2.5-3.9c0,1,0.7,2.8,0.2,2.9c-4.5,1.3,1.6,1.4-1.1,4.5c-1.4,1.7,1.3,2.6,1.9,4.3
			c1.9,6.3,3.2,0.2,5.9,2.6l7.1,6.1c2.9,0.2,6.9-2.6,9-2c2.8,0.8,3.3,1.6,4.1-2.2c0.2-1.2,0.5-1.6,1.6-2.3c0.2-0.1,1.1-3.2,1-3.5
			c-0.4-0.8-0.6-4.5,0.6-4.9c0.2-0.1,0.4,0,0.6,0c0.8,0.2,1.9,1,3.3,0.4c2.6-1.1,3.1-3.1,5.6-0.1c0.2,0.2,0.4,0.5,0.5,0.7
			c0.6,0.8,1,1.3,2,2.4c1,0.8,1.8,0.1,2.5,1.4c1.2,2.4,3.2-0.8,3,2.6c-0.1,1.4,4.8,3.2,6,4.1c1.3,0.6,2.8,0.4,4.1,0.8
			c2.8,1,3.6,2.8,6.9,1.2c0.6-0.2,5.5-2.9,5.4-1.4c-0.2,1.9,0.7,0.7,2.8,1.6c2,0.7,1,6,3.2,6c1.2,0,2.6-0.4,4.1-0.7
			c2.9-0.7,5.9-1.3,7.8,1.2c1.2,1.6-0.4,3.5,1.7,2.9c2-0.6,4.1,2.6,6.6,0.5c0.7-0.5,4.7-1.9,4.8-2c0.8-2-2.9-6-3.8-7.7
			c-0.6-1.1-3.3-4.3-1.4-5.4c0.5-0.4,1.8,0.2,1.6-0.8c-0.1-0.8,0.4-2.6-0.4-3.3c-1.2-1-1.4-1.7-1.2-2.3c1-2.3,9-3,10.5-4.1
			c0.7-1,1.4-2,2.8-2c0.4,0,0.6,0,1.1,0.1c1.6,0.2,3.6,0.6,4.8-0.1c0.4-0.2,1.7-0.7,2.2-0.7c0.7,0,0.5,0.7,1.1,1v0.1
			c0,3.3-2.6,5.5-1.6,9.2c-1,6.9,3.3,1.7,6.6,1.6c2.4-0.1,14.5,4.3,12.7-0.4c-1.7-4.3,0.6-1.8,2.3-3.7l5.9-6.5
			c0.6-0.7,3.3-3.3,5.4-4.9c0.7-0.6,1.4-1,1.8-1.1c1.1-0.2-0.1,1.2,1,1.4c1.3,0.5,3.9,0.2,4.5,1.8c1.2,3.1,1.3,1,3.3,1.4
			c0.1,0.4,0.1,0.7,0.1,1.1c-0.1,1.1-1,1.8-1.3,3c-0.5,1.3,1,1,1,1.9c0,0.8-2.3,2.3-2.3,4.4c0,2.4,1.4,2.9,2.5,4.4
			c-1.1,1.1-4.2-1.2-5.3-1.4c-1.1-0.1-2.3-1.9-2.9-1.6c-3.3,2.3-1.9,1.9-0.5,4.7c1,1.9,6.2-0.8,8.1-0.7c2.2,0.2,2.8,2.2,4.2,0.5
			c2.2-2.5,5.6,1.8,6.8,2.6c0.6,0.4-0.2,2.3,1.1,1.6c2.8-1.4,3.6-4.3,6.1-6.6c1.8-1.6,5.6-2.9,6.1-5.4c0.1-0.6,1-0.8,0.7-1.6
			c-0.1-0.2-0.1-0.5-0.2-0.7c-0.1-1,0-1.9,0.4-2.8c1-2.4,3.3-3.9,3.6-1.2c0.1,1.4,0.7,1.8,1.6,1.8c1.4-0.1,3.5-1.4,4.2,0
			c1.1,2.2,1.4,4.5,2,6.8c0.2,1,0.7,1.6,1,2.2c0.4,0.7,0.5,1.3-0.1,2.6c-1.3,2.9-4.4,5.3-1.9,8c2.3,2.5,3,4.9,4.9,7.4
			c0.2,1.3,1.1,2.4,1.2,4.1c0.1,2.6-1,4.3,2.2,5c2.5,0.6,3.8-0.7,6.1-1.6c0.6-0.2,1.1-0.4,1.4-0.5c0.7-0.1,1.3,0.1,2.4,0.8
			c1.8,1.3,2.9,1.7,3.2,2.3c0.4,0.6,0,1.6-0.8,3.8c-3.3,8.8,1.3,4.2,7.1,5.6c2.3,0.6,6.1,1.6,7.8-0.4c2.4-2.8,2.9-1.1,6.5-0.1
			c2.2,0.6,2.9,1.1,3.6,1c0.7-0.1,1.2-0.8,2.9-2.4c1.8-1.8,4.8-1.3,6-3.5c0.8-1.4,1-2.3,1.9-2.4c0.4,0,0.7,0,1.3,0.1
			c1.3,0.4,1.8,0.4,2,0.5c0.1,0.1,0,0.6,0.2,1.7c0.5,3,4.5,3.6,5.7,5.4c0.5,0.7,0,5.9,0,7.1c0,1.7,0.8,2.8,2,3.6
			c3.7,2.5,11.4,2.4,11.6,7.1c0.5,1.8,5.9,1.7,8.1,1.4c1.1-0.1,2.8,0.2,3.6-0.5c0.2-0.1,1-0.1,1.8,0c1.4,0.2,3.2,0.6,3.6,1
			c0.2,0.2,1.3,1.7,1.2,2c-0.1,0.5-1.8,0.7-2,1.2c-0.2,0.5,0.8,0.4,1,1c0.2,3.8,2.5,3.2,4.9,1.1c1.2-1.1,1.9-1.4,2.4-1.3
			c0.8,0.1,1,1.6,2.2,2.5c2.9,2.4,1.4,0.4,0.6,3.2c-0.6,2.4-3.2,3.2-5,5c-2.2,2.2,3.5,1.2,3.9,2.8c0.1,0.4-0.1,0.8-0.7,1.6
			c-2.3,2.2-2,0.1-4.9,0.7c-1.8,0.4,1.9,3.1,0.7,3.8c-1.3,0.8,0.4,3.8-0.7,4.4c-0.4,0.2-1.1,0.1-2.3-0.4c-2.4-1-1.2,2.8-2.3,4.4
			c-2.3,3.2,0.4,1.7,1,4.1c0,0.1,0,0.4,0,0.6c-0.1,1.6-0.8,5.3-1.2,5.6l-4.8,5.4c-1.7,1.3-2,5.7,0.8,3.5c1.1-0.8,3.8-0.7,3.2,1.1
			c-0.1,0.2-1.8,1.2-2.2,1.4c-0.1,0.1-0.2,0.5-0.4,1.1c-0.2,0.7-0.5,1.7-1.1,2.3c-2,2.2,0.4,4.4-2.6,5c-0.2,0-0.5,0.1-0.6,0.1
			c-1.9,0.4-2.9,0.2-2.9,2.8c0,1.2-1.6,2.5-2,3.6c-0.5,1.1-4.1,1.6-5,2.2c-0.2,0.1,0,1.4-0.4,2.2c-0.5,0.7-0.2,3.7,0,4.5
			c-1,3.5,3.2,4.9,5.3,6.2c1.4,0.8,2,1.4,2.3,1.9c0.6,1.2-1.4,1.6-0.5,3.9c1.3,3.5-0.5,4.4-0.5,7.7c0,1,3.7-1.8,5.3-0.2
			c1.3,1.2,2.5-0.8,3.5-2.3c0.2-0.5,0.5-0.8,0.7-1.1c0.4-0.4,2.8-3.6,3.7-2.2c0.2,0.4-0.7,4.3,1.2,3.5c1.1-0.5,1.9,1,2.5,1.8
			c1.1,1.3,4.1-0.2,5-0.7c0.4-0.1,0.2,1.6,0.2,1.8c0.4,1.8,1.8-2,2.4-2.3c1-0.4,2.2-0.4,3.2-0.6c1.1-0.4,0.1,2.9,1.8,3.5
			c1.1,0.4,1.6-1.6,3.6-0.1c0.8,0,1.4-0.4,2.2-0.8c0.7-0.5,1.4-1,2.5-1c1.3,0,2.5-0.1,3.6,0.7c3,2.2,1.8,0.5,4.3,0.5
			c3.5,0,3-6.5-0.7-6.6c-0.6,0-2.6-2-3.2-2.6c-0.2-0.2-0.4-0.8-0.4-1.4c0-1.1,0.4-2.3,0.8-2.3c0.1-0.2,0.7,0.5,0.7,0.6
			c2.8,2.2,3.9,0.2,4.9-1.9c0.2-0.4,0.4-0.8,0.5-1.3c-1-1.2-2.2-2.8-1.6-4.4c0.1-0.1,0.1-0.4,0.2-0.5c0.6-1,2.2-0.4,3.3-1.2
			c2.9-2.3,1.3-2.3,4.1,0.4c0.5,0.5,0.5-0.7,0.7-1.4c0.5-1.4,0.8-1.2,1.3-2.4c2.2-2.6-1.1-4.4-1.1-7.2c0-0.5,0.2-1.1,0.5-1.7
			c1.1-2.4,3-4.9-1.8-4.2c-2.6,0.4-0.5-1.3-2.9-1.2c-1.2,0.1-2.3-1.9-3.8-1.9l-0.1-0.1c0-0.7,0-2.5-0.5-3c-0.5-0.5-2.2-1-1.6-1.9
			c0.4-0.7,2.2-0.1,2.2-1.4c-0.1-1.4,0.6-2.6,0.7-3.9c0-0.2-2.5-0.2-3.1-0.2c-1.9-0.2-3.9,2-5,1.1c-1.3-1.1-1.4-4.1-4.2-1.1
			c-0.8,0.1-1.4,0.2-1.9,0.5c-0.5,0.1-1,0.4-1.4,0.7c-0.5,0.2-1.6,1.1-2.2,1c-0.1,0-0.2-0.1-0.4-0.2c-0.4-0.4-0.6-0.8-0.5-1.3
			c0.1-0.4,1.2-0.5,1.4-0.8c1.2-1.1,0.8-1.6,0.8-3.1c0-0.7-0.8-0.8-1.2-1.2c-0.6-0.8-1.1-1.8-2-2.4c-0.7-0.5-1.3-1.9-1.4-2.9
			c0-0.2-0.1-0.5-0.1-0.7c1-2.4-3.7-5.9,0.5-5c2,0.4,3.5-1.9,5.1-2.8c0.5-0.2,2.6,3.7,2.9,4.5c0.1,0.2,0.4,2.3,0.8,2
			c1.1-0.4,2.9,0.1,2.9-0.4c0.2-1.8,2.5-7.2,3.5-8.7c1.2-1.9,3.6-4.8,5.7-5.5c0.5-0.1,1-0.2,1.3-0.2c1.3-0.2,2.3-0.4,2.6-2.3
			c0.6-3,4.1-0.2,4.5-4.3c0.2-2,3.6-2,5.3-3.5c2.2-0.6,2.4-2,5.1-1.7c1.2,0.1,2-1.1,2.2-2.3c0-0.7-4.8-3.5-4.1-3.8
			c1-0.5,2.4-1,3.5-1.4c0.7-0.4,1.7-1.2,2.3-1.4c0-0.1-2.4-2.2-2.6-2c-2.6,1.6-10.5,9.4-12.6,3.8c-0.1-0.2-0.1-0.5-0.2-0.7
			c-0.5-1.9,0.2-3.7-0.4-5.7c-1.2-3.8,0-3,2.8-3.8c0-0.7-2.6-2.4-2.4-3.6c0.1-0.4,0.5-0.7,1.4-1c1.7-0.4,2.6-4.4,4.5-5.9
			c0.5-0.6,1-1.2,1.4-1.8c1.8-2.5,3.3-5.7,4.5-8.3c1.1-2,0.6-5.1,3.5-4.7c2,0.4,1.1-0.7,2.6-2c2-1.8,5-3.9,3.6-6.5
			c-0.5-0.8-0.8-2.6-0.8-3.6c0-1.1,1.8-1.1,1.4-2.5c-1.8-0.4-3.3,0.4-3.3-1.1c0-0.5,0.1-1.2,0.5-2.2c1-1,1.1-4.5,1.1-6
			c0-1.2,1.4-1.2,0.8-2.2c-1.7-2.8,1.2-2.5,0-5.5c-0.2-0.6-1.7-4.1-1.7-4.5c0-1,1.4-2.4,0.2-3.1c-1.3-0.7,0.4-3.2-1-4.7
			c-1.1-1.2-4.7-3.3-5-4.8c-1-2.6-2.2-3.5-3.7-5.4c-1.2-1.6-1.8-3.1-2.8-4.8c-0.7-1.2-3.1-1-3.7-2.6c-1.1-2.6,0.4-5.1,1.2-7.5
			c0.4-0.8,1.9-4.2,0.5-4.7c-2-0.6-2.2-0.2-3.6-2c-0.5-0.6-5.4-1.9-6.5-2.5c-2.9-1.6,1.1-3.6-1.2-4.9c0.1-0.6-0.5-2-0.1-2.5
			c0.4-0.4,1.7,0.1,2.3-0.4c1.6-1.1-3.9-5.4-5-5.7c-2.4-1-5.1-1.2-7.7-1.2c-0.5-1.9,1.2-3,2.9-3.3c1.7-0.4,2.9-1,2.9-3
			c0-1.1-2.2-0.4-1.9-2c0.2-1.1,2.3-1.7,0.5-2.4c-2.4-1-0.4-3.8-2-4.4c-0.5-0.1-3.6-0.2-3.1-0.8c0.1-0.1,0.2-0.2,0.5-0.2
			c1.3-0.6,1.2-1,0.7-1.9c-0.6-1,0.8-3.2,1.7-3.6c0.8-0.4,0.8,0,1.4,0.4c1.2,0.7,2.4,0.1,3.6-0.2c1.2,0.1,1.6-0.5,1.9-1.1
			c0.4-0.5,0.6-0.8,1.3-0.8c1.7-0.1,2.9,0.5,4.2-1.6c0.6-1,0.8-2.8,2.3-2.8c0.5,0,1.8,2.5,2.6,2.8c1.7,0.5,4.1,0,6,0.7
			c1,0.4,4.3,1.3,5.1,1.3c0-1.6-0.4-4.8-1.7-5.6c-2.8-1.9-1.2-0.8-2.5-3.8c-0.7-1.6-1.9-1.3-3.2-2c-0.2-0.1-0.4-0.2-0.5-0.5
			c-0.4-0.8,0.7-2.2,1-2c2.5,1.6,3.3-0.1,5.6-0.1c0.1,0,0.4,0,0.5,0c0.8,0.1,3.6,2,3.7,2.8c0.1,1.4-1.8,0.6,0.1,2.5
			c0.7,0.6,5.3,3.9,6,2.3c1.3-3,3,1.9,4.1,0c0.6-0.1,1.7-1.6,2-1.4c0.6,0.2,1,1.1,1.7,1.2c0.8,0.2,1.2,0.4,1.4,0.5
			c0.2,0.2,0.1,0.7,0.5,1.8c0.1,0.4,0.5,1.8,0.8,1.8c1.8,0.1,3.1-1.7,5.1-0.4c1.7,1.1,2.9,0.1,3.6,2.4c-0.5,1.8,0.2,1.8,2.2,1.9
			c1.3,0,2.2,1.3,3.5,1.4c1,0-1-2.2-1-2.6c-0.1-0.7,0.2-2,0-2.6c-0.8-2.2-1.9-0.8-1.8-3.8c0.1-2.8,1.7-1,3.6-0.6
			c2,0.4,1.6,2.4,2.9,2.4c1.4-0.1,1.3-1.6,2.4,0.2c0.5,0.7,1.1,1.1,1.7,1.2c1.4,0.2,3.2-0.8,4.3-1.3c1.7-0.7,1-3.2,2.5-3
			c0.5,0.1,1.9-0.6,2.8-0.7c1.2-0.2,1-1.2,1.7-1.8c1.1-1,2.4-0.4,3.8-1l6.2-2.9c2.8-0.6,4.3-2,6.6-3c0.6-0.2,1.3-0.5,2.2-0.7
			c2.4-0.5,4.3,2.4,5.3,4.3c2.5,0,6-5.1,8.4-5.9c1.6-0.5,1.6-1.9,2.6-3.1c1.4-1.6-0.1-4.5,1.7-7.1c0.8-1.1,2.3,0.6,3.2-1
			c0.2-0.5-0.7-5.4-1.3-5.9c-1.9-1.3-7.3-4.3-8.3-6.1c-2.4-5-6.2-3.1-10.4-4.2c0.1-0.5,0.1-1,0.2-1.4c0-0.5,0-1,0-1.4
			c0-1.1,0.5-1.4,1-2.5c1.2-2.9-1-1.7,2.4-2.2c1.8-0.2,3.1-1.3,4.5-2.3c1-0.7,1.1-0.2,0.7-1.7c-0.6-1.7,1-1,1.3-2.8
			c0.2-1.1,0.2-2.8,0.2-3.9c8.1,0,13.5,2.4,15.8-7.1c0.5-1.6,1.2-2.5,2.2-3.3c0.6-0.5,1.3-1,2.2-1.4c1.9-1.1-0.2-2.6,3.7-2.6
			c1.7,0,3.6,0.8,3.9-1.7c0.2-1.6,1.6-3,2.3-4.3c0.2-0.4,0.5-1.7,0.8-3c0.5-1.9,1.3-3.7,2.9-2.8c1.8,1.2,9.8,0.8,7.8-2.3l-3.6-5.6
			c-0.5-0.8,0.5-1.7-0.8-2c-1.2-0.2-1-2.5-0.8-3.3c1.2-1.2,1-3.2,2-4.3c1.7-1.8,2-2.3,2.5-4.8c0.4-1.8,1.1-3,1.9-4.5
			c1.2-2.3,1.1-4.2,0.6-6.2c-0.6-2-1.6-4.1-2.2-6.2c-3.2-0.8-4.5-2.8-6.6-5.7l-1-2.4c-0.2-0.5-0.1-1.4-0.1-1.9c0-0.4,0-0.8-0.1-1.2
			c-0.1-0.8-0.2-2-0.8-2.8c-0.5-0.5-0.2,0-0.4-1.2c-3.1,0-2.5,1.1-3.5,3.8c-0.7,2-2.8,2.2-2.8,4.1l0,0c-0.6,0-1.9-0.4-3.1-0.7
			c-1.1-0.4-2.2-0.7-2.6-1c-1.2-0.6-7.3-1.7-7.4-2.4c-0.5-1.6,1-1.9-1.7-1.4c-2.2,0.4-4.4-0.1-6.6-0.1c-3.7,0.1-5.3-0.7-8.4-2.4
			c-1.1-0.6-1.9-1.1-2.6-1.6c-0.7-0.6-1.3-1.2-1.6-1.9c-0.4-1-0.4-2.2,0-3.8c0.5-2.8-0.1-3.8-0.4-6.2c-0.7-0.6-2.3-3.5-3-4.5
			c-0.4-0.5,3,0.2,3.5,0.1c3.3-0.7,1-3,3.8-3c0.8,0,4.2,1.4,4.1,0.1c-0.1-1-3.9-4.4-4.8-5c-3.2-2.4,1.7-6.6-0.8-9.1
			c-0.5-0.5-0.7-0.7-0.8-1c-0.4-0.8,1.2-0.7,2.3-2c2.8-3.2,1.3-1.3,4.9-2.3c0.8-0.2,1.4-1.3,2.4-1.1c1.7,0.2,6.1,0.8,7.2,0.1
			c0.7-0.5,2.2,0.1,3.3-0.1c0.2-0.1,0.6-0.2,0.8-0.4c3.5-1.7,5.9,1.2,8.1,2.8c1.4,1.1,6.2,0.2,7.5-0.8c3.7,0,5.9,3.1,9.6,1
			c0-0.1,0-0.1,0.1-0.1l1.7-24.8c0.2-3.2-0.4-7.1,0.2-9.8c0-2.5-0.5-4.9,1.3-6.8c0.6-0.6,1.7-2.5,2-3.9c0.1-0.5,0.1-0.8,0-1.1
			c-0.7-1.6-0.6-1.7,0-3.2c2.5-6.5,7.9-13.6,11.8-19.4c1.1-1.8,2-5.6,2.4-7.8c0.2-1.7,0.7-5,1.3-6.6c0.4-1,1.2-1.6,1-2.6
			c-0.5-1.9-1.4-4.1-1.6-6.1c0-0.8-0.1-1.9-0.2-3.1c-0.2-1.9-0.4-3.9,0.2-5.3c-0.2-1.2,0.2-9.7-0.8-9.9c-2.4-0.5-2.4-4.8-1.1-6.5
			c0.6-0.7,0.6-1.6,0.6-2.4c-0.1-0.8-0.2-1.8-0.2-2.6C512.9,179.6,518.5,179.7,516.1,177.7z M225.6,493.4c0.2,0.1,0.5,0.1,0.7,0.1
			C226.1,493.5,225.9,493.4,225.6,493.4z M192.2,352.3c0,0,0.1,0,0.1,0.1C192.2,352.3,192.2,352.3,192.2,352.3z M191.1,351.9
			c0.1,0,0.2,0.1,0.4,0.1C191.3,351.9,191.2,351.9,191.1,351.9z M191.6,352c0.1,0,0.1,0,0.2,0.1C191.8,352,191.7,352,191.6,352z
			 M232.2,493.9c-0.7-0.5-1.2-1.2-2.4-1.2C231,492.7,231.5,493.4,232.2,493.9z M232.6,494c-0.1,0-0.2-0.1-0.4-0.2
			C232.3,493.9,232.4,494,232.6,494z M226.5,493.5c0.1,0,0.4,0,0.5,0C226.8,493.5,226.6,493.5,226.5,493.5z M229.9,492.7
			c-1.2,0.1-1.8,0.7-2.9,0.8C228,493.4,228.7,492.9,229.9,492.7z M196.7,580.1c0,0.6-0.5,1.1-1.2,1c-0.4-0.1-0.5-0.5-0.6-0.7
			c-0.4-0.7-1.4-0.5-1.1-1.6c0.2-0.7,0.5-0.5-0.1-1.1c-0.7-0.7,0.2-1.4,1-1.2c0.4,0.1,0.6,0.5,1,0.8c0.2,0.2,0.6,0.2,0.8,0.2
			c0.1,0.6,0.1,1.6,0.7,1.8L196.7,580.1z M369.1,589l2.5-0.2l-0.2,0.1L369.1,589z"/>
		<path class="st0" d="M225.4,305.4c-0.1-0.1-0.1-0.1-0.2-0.2l0,0L225.4,305.4z"/>
		<path class="st0" d="M228.4,258.4C228.4,258.4,228.4,258.5,228.4,258.4c0,0.1,0,0.1,0,0.2V258.4z"/>
		<path class="st0" d="M49.6,499c3,1.6,1.1-3.3,3-3.3c1.6,0,4.9-0.8,6.3-1.6c3.8-1.9,1.6-0.8,5.1-0.2c2.6,0.5,5.4,4.3,5.3,7.1
			c-0.1,1.8-1.8,4.4,0,6.3c2.4,2.5,2.3,6.7,5.1,7.8c2.9,1.1,5.6,0.7,8.3,1.2c1.2,0.2,2.3,0.6,3.5,1.2c0.7,1.2,1.3,2.2,2.2,3
			c0.7,0.6,1.6,1.1,2.9,1.2c1.1,0.1,2.9,1,3.9,1.4c1.7,0.7,0.7,1.7,1.7,2.8c1.8,2.2,6,2.2,8.4,1.3c4.7-1.6,10.5,1,11.7-5.3
			c0.4-2-0.4-2.6,2.8-2.2c2.5,0.5,1.7-1.9,1.7-3.7l-8.8,1.1c-3.1,0.4-2.9,0-3.7-2.3c-0.5-1.4-4.5-1.3-6.1-3.1
			c-0.1-0.1-0.2-0.2-0.4-0.5c-1-1.2-2-3-2.8-4.2l-1-1c-3.7-5.4-8.8-7.7-14.3-10.4c-1-0.5-1.9-1-2.9-1.6c-0.8-0.5-1.9-1.1-3.1-1.7
			c-3.9-2.3-8.8-5.5-10.3-8.3c-1.3-2.5-11.4,2.8-14,3.2c-3.5,0.7-7.5,0.8-7.5,4.7C46.6,494,48.1,498,49.6,499z"/>
		<path class="st0" d="M24.5,522.8c0.7,0.1,1.2,1,1.9,1c1.1,0,2.4-1.3,4.2-1.3c2.5,0,4.2-5,5.9-5.5c2-0.6,3.7-0.7,4.2,1.3
			c0.8,3.3,5.5,2.3,6.6,4.9c0.5,1.1,1.1,3.5,1.9,4.2c1.4,1.2-0.4,3.2,1.2,4.4c1,0.7,2.6,1.3,3.8,1.3c0.7,0,2.2-1.6,2.5-1.3
			c1.4,1,1.6,3.5,3.7,4.3c3,1.1,6.9,0.2,9.3-1.3c1-0.7,1.8-2,3-1.4c2.2,1.2,3.3-1.6,4.2-2.8c0.8-1.2,2.9-1.3,2.5-3.3
			c-0.4-1.9-3.3-4.9-5-5.6c-1.3-0.6-8.3,0.2-6.8-2.8v-0.7c-0.4-1.6-2.3-2.6-2.9-3.9c-0.5-1.1-1.7-3.5-2.3-4.3
			c-0.7-0.8-6-1.1-7.2-0.6c-2.9,1.3-2.2-2.4-4.2-2.3l-8.5,0.4c-1.8,0.1-3.7-1.2-5.5-1.1c-0.7,0.4-1.6-0.1-2.4-0.1
			c-1.3,0.1-3.1,1.4-4.7,1.8c-1.7,0.4-3,0.7-4.8,0.7c-0.1,0.4-2.5,1.9-2.9,2.4c-1.9,2-2.2,5-1.2,7.5
			C21.9,520.6,22.2,522.4,24.5,522.8z"/>
		<path class="st0" d="M15.9,545.3c2.8,1.2,6.5,3.8,6.7,7.1c-0.2,0.2-1.2,1.3-1,1.7c1.2,1.9,0.8,1.4,2.6,0.1c2.5-1.9,4.1-5.3,8-4.3
			c1.6,0.4,2.6,1.2,4.4,1.2c1.4,0,2.2-1.3,4.1-1.2c1.2,0,2.2,0.8,3.1,1.4c0.5,0.2,1.4,1.1,1.8,0.4c0.2-0.7-0.1-1.4,1-1.8
			c1-0.4,1.8,0,2.8-0.5c1.2-0.6,0.8-1.8,0.8-2.9c-0.1-0.8-1.2-1.2-1.4-2c-0.1-0.6-0.1-1-0.5-1.4c-0.2-0.4-0.6-0.5-0.8-0.7
			c-0.4-0.4-0.7-1-0.8-1.4c-0.5-1.1-0.1-1.7-1.4-1.6c-1.6,0.1-1.8-2.2-3.5-0.8c-1.8,1.6-2.5-0.5-4.4-0.5l-1-0.1
			c-1.2,0.7-2,2.9-3.6,1.9c-1.4-0.8-2.9,0.5-4.4,0.8c-1,0.2-1.3,1.2-2.5,0.5c-1.4-0.8-2.5-1.6-4.3-1.9c-0.4,0.1-0.6-0.8-1.1-0.7
			c-0.7,0.1-1.7,1.3-2.5,1.6c-0.8,0.2-1.6,0.7-2.4,1c-0.2,0.1-1.3,0.1-1.2,0.5c0.1,0.5,0,1.2,0.2,1.6
			C14.8,543.5,15.4,545.2,15.9,545.3z"/>
		<path class="st0" d="M93.7,594.9c-0.4-1.2-3.2-3.5-4.4-3c-0.8,0.4,2.2,7.2-1.8,4.4c-0.7-0.5-0.8-1.4-1.4-2c-1.6-1.2,0,2.3-0.7,2.8
			c-1,0.6-2.4-1.4-3.3-1.9c-1.3-0.1-1,2.4-3,1.6c-1.6-0.6-2.6-1.4-3.6-2.9c-0.2-0.4-1.4,0.5-2.3,0.4c-0.8-0.1-2.5-0.7-3.1-1.3
			c-0.4-0.4-2.2-3.5-2.2-4.1c0-1.7-1.3-3.9-2.9-3.8c-2.2,0.1-4.9-2.8-5.9,0.7c-0.2,0.8-0.8,0.7-1.1,1.3c-0.5,2.2,0.7,4.9-1.4,5.7
			c-0.2,0.1-0.5,0.1-0.7,0.2c-1.9,0.4-4.2,1-5.9,2c-0.8,0.6-1.9,2.3-2.9,2.3c-1.3,0-1.4-0.6-1.9,0.7c-1.6,3.6-5,0.1-7.2,0.7
			c-2.4,1.3-1.2-0.8-3-1.1c-1.1-0.1-1.7-1.3-2.9-1.6c-2.8-0.5-0.7,3.2-2.2,3c-2.9-0.4-0.4-2.2-1-3.5c-1-0.1-2.8,0.4-3.8,0.5
			c-2.4,0.4-1.8-0.5-3.2-1.8c-0.4-0.7-0.8-0.8-1.6-1.2c-0.5-0.4-0.4-1.2-0.8-1.6c-0.7-0.6-2.4-0.1-3.3-0.6c-1-0.4-2-1.2-3.1-1.3
			c-1.4-0.1-2.3,0.1-3.7-0.7c-0.6-0.4-1.1-1-1.6-1.3c-0.7-0.4-1.6-0.5-2.3-0.8l-0.5-0.2c-0.8-0.4-1.2-0.7-1.9-1.3
			c-0.7-0.5-1.6-0.6-2.3-1.1c-1.3-0.7-2.8-2.4-4.4-1.8c-1,0.4-3.7-0.7-3.8,0.5c0,0.8-2.5,0.6-3.2,0.8c-0.6,0.2-1.4,0.8-2.2,0.6
			c-1.4-0.4-1.6,1-3,1c-1.1,0-3.7-0.4-4.3,0.7c-1.1,1.8-3.7,0.8-4.5,1.7c-0.5,0.5-0.8,1-1.6,1c-0.1,0.7-0.2,0.8,0.4,1.4
			c1.2,1.2,0.1,3.5,1.1,4.8c0.4,0.5,0.5,1.7,0.5,2.3c0,1.1-0.6,1.3-1.3,2c-0.6,0.7-1.9,2.5-2.6,2.8v0.1c0.2,0.1,2.3,2.8,2.3,3.1
			c-1,0.2-2.3,0-1.1,1.6c0.5,0.7,1.2,1.2,1.3,2.2c0.1,0.6-0.8,1.3-0.6,1.8c0.1,0.2,0.5,0.8,0.6,1c0.1,0.1,0.7-0.1,1-0.1
			c0.2,0.1,0.4,1.1,0.6,1.4c0.4,0.6,0.7,0.7,1.2,1.2c0.2,0.4,0.7,1.6,1.1,1.7c0.4,0.1,2.2-1.7,2.2,0.5c0,1.9,0.2,1.4,1.7,2.5
			c1.6,1.1,7.2,0,9.1-0.2c0.7-0.1,4.2,0,3.8-1c-0.7-2.2,0.1-4.7-1.3-6.7c-0.5-0.7,0.8-2,1.6-2c1.6,0,0.8,1.9,2.4,0.2
			c0.7-0.2,1.1-0.2,1.6-0.7c1-0.8,0.8-1.2,2,0c0.7,0.6,0.8,1.2,1.8,0.7c1.2-0.6,0.4-0.8-0.1-1.9c-0.4-0.8,0.5-1.1,1.1-1.4
			c1.3-0.8,1.8,0.5,3,1.2c0.8,0.5,3.9,3.5,4.7,2.6c1-0.8,0.1-0.8,1.4-1c1,0,1.3,0.6,2.2,1.1c0.4,0.2,0.7,0.5,1.1,0.7
			c0.4,0.2,0.8,0.4,1.2,0.7c0.4,0.4,0.8,0.6,1.3,0.8c0.4,0.5,1.1,1,1.8,1c1.1,0,0.7,0,1.4,0.6c0.4,0.2,1.1-0.1,1.4-0.2
			c1-0.4,2,0.4,3,0.4c1,0.1,1.1,0.6,1.4,1.3c0.2,0.4,0.5,1.2,1,1.2s0.7-1.1,1.2-0.6c0.4,0.2,1.1,1,1.4,1.3c0.8,0.7,1.7,0,0.7,1.6
			c-0.8,1.3-0.4,4.2-0.4,5.7c0,0.8-0.1,1.7,0.2,2.4c1,1.9,1.3,0.2,2.6,0.8c1.4,0.6,3.2,0.4,4.8,0.5c3,0.2,3.5-2.2,5.9-2.2
			c2.3,0,0.7,1.4-0.2,2.2c-1.3,0.8-0.4,1.6,0.6,2.2c1,0.6,2-0.6,2.9-0.8c2.4-0.6,1.6,0.4,1.3-1.8c0-0.4,0.8-1.2,1.1-1.4
			c0.6-0.5,0.8,0.5,1.1,1c1.3,1.8,1.4,0.2,2.8,0c2.5-0.4,1-1,2.4-1.9c0.8-0.6,1.7,0,2.4-1.1c0.6-1,1.4-1.7,2.4-2.2
			c0.4-0.2,0.7-0.4,1.1-0.6c1.8-0.8,1.4-1.1,2.6,0.4c0.6,0.6,1.2-1.3,1.9-0.5c1.7,1.9,1.7-0.4,3.2-0.4c1.7,0,1.9-1.3,3.1-2.3
			c1.6-0.6,2.8-2.2,4.3-2.6c2.2-0.7,4.5-3.1,6.2-4.7c1.9-1.8,3.1-3.9,4.9-5.7c1.4-1.3,2.6-3.3,3.9-4.8c0.5-0.5,2.5-2.9,2.3-3.6
			C95.4,596.5,94.1,596.1,93.7,594.9z"/>
		<path class="st0" d="M225.8,344.6c-0.5-0.4-0.7-0.8-1-1.3c-0.1,0-0.2,1.2-0.4,1.4c-0.1,0.6-0.4,1.3-0.5,1.9l-0.4,1.2
			c0.6,0.2,1,0,1.4-0.1c0-0.5,0.6-0.8,1-1c0.5-0.2,0.7-0.2,0.8-0.8C227.4,344.6,226.6,345.2,225.8,344.6z"/>
		<path class="st0" d="M305.3,126.3c2.9-1.1,4.9-0.5,6.9-3.3c1.9-2.9,8.8-0.1,12.3-0.8c2.9-0.6,4.8-1.2,7.7-1.3c2-0.1,4.3-2,6.5-2.6
			c2,0.2,3.9-0.4,6-0.2c0.5,0,1.2,0,1.7,0.1c0.7,0.2,1.6,0.6,2-0.1c0.2-0.4-0.5-1-0.7-1.2c-0.8-0.8-2.5-0.4-3.5-0.8
			c-0.8-0.5-1.8-1.6-2.9-0.8l-0.8-0.1c-0.7,0.4-1.8,0.1-2.6,0.4c-1,0.2-1.9,0.5-2.9,0.6c-2,0.4-3.9,0.5-6,0.7
			c-1.2,0.1-2.5-0.1-3.7,0c-1.6,1.2-9,0.2-11.1,0.2c-3.2,0-4.7-0.7-7.4-1.6c-4.4-1.2-6.2,1.6-8.3,5
			C297,122.4,303.8,126.7,305.3,126.3z"/>
		<path class="st0" d="M232.3,155.9c0.6-0.2,1-0.1,1.6-0.1c1-0.1,1.3-0.8,2-1.3l-0.8-0.7c-1,0-2.3-0.1-3.1,0.1
			c-0.6,0.2-1.2,0.6-1.4,1.3c-0.4,0.6-0.2,0.8,0.4,1C231.4,156.3,231.9,156.2,232.3,155.9z"/>
		<path class="st0" d="M195,173.9c0.1-1.9,7.3-1.1,9-1.7c1.8-0.6,1.7-2.4,3.3-3.1c1.6-0.6,5-3.2,5-5c-3.1-0.8,0-3.5,2.2-4.2
			c2.6-0.7,7.7-2.5,9-4.9c0.6-1.1,4.8-0.2,4.3-2.2c-1.8-0.2-3-1.4-4.8-0.7c-1.8,0.7-5.6,1.2-6.8,2.3c-1.6,1.4-3.5,2.6-5.1,3.8
			c-2.5,1.6-3.9,4.1-6.3,5.7c-1.6,1.1-5.7,5.1-7.4,4.9l-2.6,2.3C193.3,172.8,194.8,177.9,195,173.9z"/>
		<path class="st0" d="M166.9,230.7c0.4-0.2,0.8-0.2,1.2-0.5c1.2-0.7,2.3-1.4,3.5-2.3c0.4-0.2,2.6-2.2,1-2.2l-0.8-0.2
			c-1.1,0.5-2.5,0.8-3.6,1.2c-1.2,0.4-2-0.2-3.1-0.2c-0.5,0.8-0.2,2.4,0,3.5C165.1,231.1,165.8,231.3,166.9,230.7z"/>
		<path class="st0" d="M175.9,226c0.5-0.2,1.4-1.2,2.2-1.6s2.8-0.7,3.1-1.6c0.2-0.7-2-2.9-2.3-3.8c1.2,0.2,4.5,2.9,5.5,2.3
			c0.8-0.5,2-3.3,2.9-4.4c1-1.2,1-2.5,2.8-2c3.2,0.8,6.6-5.5,7.1-7.8l0.2-0.7c1.2-2.2,3.6-2,3.1-5.1c-0.4-1.8-1-5.7,0.1-7.4
			c0.8-1.3,1.6-2.3,0.5-3.7c-1.4-1.8-3.6-2.8-4.5-4.8c-1.4-3.1,1.6-5.1-3.1-5.1c-0.6,0-4.3,5-4.8,6.1c-0.8,1.8-3,2.6,0.2,2.6
			c-0.2,0.6-1.4,1.8-1.9,2.3c-1,0.8-0.4-1.1-0.7-1.1c-0.5,0-1.2,0.6-1.6,1c-2.6,1.9-3.3,6.6-5.5,9c-1.8,2-1.9,4.5-3.3,6.5
			c-1.1,3.5-2.4,5.7-2.4,9.4C173.4,216.9,173.5,226.8,175.9,226z"/>
		<path class="st0" d="M241.8,142.3c1.1-0.7,1.8-0.5,2.9-1.6c2.4-2.4,1.8-1.3,4.1-1.8c1.6-0.4,1.9-1.8,3.9-1.6
			c1.9,0.2,6.5-1.8,8.3-2.6c5.1-2.3,6.3-5.4,12.9-5.4c0.8,0,5.6,0.2,5.9-0.6c0.2-0.7-2.4-1-2.4-1.8c0.1-1,3.1-1.1,3.7-1.9l0.6,0.4
			c1.7-1.4,4.2-0.4,6.1-1.3c0.2-2,4.8-3.1,1.3-4.2c-0.7-0.2-0.6-0.4-1.1-0.8c-2.6,0-5.4,2.2-8.1,1.3c-8.6,3-16.6,8-26.1,8.1
			c-3.7,1.9-8.5,0.8-12.4,3.5c-1.1,0.7-5.9,8.1-5.4,9.1C238.5,141.9,238.4,144.6,241.8,142.3z"/>
		<path class="st0" d="M369.4,118.4c2.4-0.1,2.9-4.4,6.7-4.5c3-0.1,5.3-0.8,8.1-1.1c2.9-0.4,5.5-3.3,8.5-4.4c1.4-0.6,7.7-0.6,8-2
			c-2.4-0.6-1.7,0-3.5-1.7c-0.4-0.4-5.9,1.7-6.9,2c-2.5,0.6-5.4-0.6-7.7,0.2l-1.4,0.1c-1.7,0.6-5.1,1.1-6.9,0.8
			c-1.6-0.2-2-0.6-2.6,0.6c-0.8,1.7-3.9,1.8-3.1,4.5c0.1,0.5,0.6,2,0.5,2.5c-0.2,0.7-1.6,0.6-1.6,1.4
			C368.4,116.8,367.8,118.5,369.4,118.4z"/>
		<path class="st0" d="M105.8,509.8c0.4,0.4,1.4,0.4,1.9,0.6c1.2,0.6,1.6,1.4,3,1.4c1.6,0,3.9,0,5.5-0.5c1.2-0.4,0.2-1.3-0.5-1.7
			c-1.2-0.6-2.2-1.1-3.5-1.3l-1.3-0.8c-1.3,0.2-8.4-3.7-8.4-1c0.7,0.5,1.4,1.2,2.2,1.7C105.2,508.6,105.2,509.3,105.8,509.8z"/>
		<path class="st0" d="M413.5,100.7l0.4,1.3c0.1,0.6,0.4,1.3,1.2,1.1c0.2-0.1,0.6-0.8,0.7-1.1c0.5-1.1-0.6-0.8-0.5-1.9
			c0-1,0.4-1.1,1.2-1.3c0.5-0.1,3.2,0.2,1.6-0.8c-0.6-0.4-0.7-0.8-0.8-1.4c-0.1-0.6,0-1.2-0.8-1.2h-2.6c-1,0-0.7,1.1-1.2,1.7
			c-0.7,1.1-0.5,1.2,0.2,2.2C413.1,99.6,413.1,100.1,413.5,100.7z"/>
	</g>
</g>
<g id="Elektriciteit">
	<g>
		<path class="st1" d="M324.4,122.1c2.9-0.6,4.8-1.2,7.7-1.3c2-0.1,4.3-2,6.5-2.6c2,0.2,3.9-0.4,6-0.2c0.5,0,1.2,0,1.7,0.1
			c0.7,0.2,1.6,0.6,2-0.1c0.2-0.4-0.5-1-0.7-1.2c-0.8-0.8-2.5-0.4-3.5-0.8c-0.8-0.5-1.8-1.6-2.9-0.8l-0.8-0.1
			c-0.7,0.4-1.8,0.1-2.6,0.4c-1,0.2-1.9,0.5-2.9,0.6c-2,0.4-3.9,0.5-6,0.7c-1.2,0.1-2.5-0.1-3.7,0c-1.6,1.2-9,0.2-11.1,0.2
			c-3.2,0-4.7-0.7-7.4-1.6c-4.4-1.2-6.2,1.6-8.3,5c-1.3,2.3,5.6,6.6,6.9,6c2.9-1.1,4.9-0.5,6.9-3.3C314,120,320.9,122.8,324.4,122.1
			z"/>
		<path class="st1" d="M397.2,104.6c-0.4-0.4-5.9,1.7-6.9,2c-2.5,0.6-5.4-0.6-7.7,0.2l-1.4,0.1c-1.7,0.6-5.1,1.1-6.9,0.8
			c-1.6-0.2-2-0.6-2.6,0.6c-0.8,1.7-3.9,1.8-3.1,4.5c0.1,0.5,0.6,2,0.5,2.5c-0.2,0.7-1.6,0.6-1.6,1.4c1,0,0.4,1.7,1.9,1.6
			c2.4-0.1,2.9-4.4,6.7-4.5c3-0.1,5.3-0.8,8.1-1.1c2.9-0.4,5.5-3.3,8.5-4.4c1.4-0.6,7.7-0.6,8-2C398.2,105.7,399,106.3,397.2,104.6z
			"/>
		<path class="st1" d="M158.5,353.8c-0.1-1-1-1.1-1.7-1.4c-0.7-0.4-1.6-0.7-2.3-1.2l-5.1-1.2c-0.4,2.6-1.6,6.1-2.6,8.5
			c-1.7,3.9-2.9,11.4-6.5,13.9c-0.5,0.7-1,1.6-1.4,2.4l7.7,3.2l2.8,1.4c0.2-0.6,0-1.9,1-2c0.5,0,1.1,0.2,1.4-0.2
			c0.5-0.7,1.3-0.6,1.9-0.1c0.6,0.5,1.1,1.1,1.9,1.1l0.7-2c-0.2,0-1.7-0.6-2-0.8c-0.6-0.2-1.2-0.2-1-1.1c0.5-1.3,0.1-2.5,0.7-3.8
			c0.5-1.2,1.1-2.4,1.3-3.6c0-0.7-0.1-1.9-0.5-2.5c-0.8-1.1-0.8-0.8,0.1-1.7c0.4-0.2,0.5-1.1,0.6-1.2c0.6-0.4,1.4,0.2,2.3-0.4
			c1.3-1,0.6-3,0.6-4.3C158.4,355.9,158.7,354.8,158.5,353.8z"/>
		<path class="st1" d="M165.1,361.1c0.2,0.1,1,0.4,1,0.7c0.1,0.5,0.1,1,0.1,1.4c1.7,0.1,3.7-0.8,5.3-1.2c0.8-0.2,1.7-0.8,2.6-0.4
			c0.7,0.4,1.4,0.8,1.9,1.4v-1.9c0-0.6,0-1.7-0.2-2.2c-0.2-0.5-1-0.4-1.4-0.6c-1.2-0.5-1.1-2.2-1-3.2c0.2-1.1,0.4-2.4,0.7-3.3
			l-1.9-1l-1.3,1.1c-0.6,0.5-1,1-1.7,1.1c-0.4,0.1-0.7,0-1.2,0.2c-1.1,0.6-1.2,1.9-2.2,2.6c-0.7,0.2-1.4,0.5-1.3,1.3
			c0,0.5,1,0.2,0.4,0.8C164.4,359,164.5,360.6,165.1,361.1z"/>
		<path class="st1" d="M163.8,344c0,0.8,1.4,1.4,2.2,1.6c0.5-1.1,1-1.6,1.8-2.3c0.7-0.6,0.6-1.3,0.7-2c0.1-0.5,1.2-0.7,1.6-1.2v-1.7
			l1.8-1.6c0.8,0,3.2-0.7,3.6-1.6c0.5-0.8,1-1.1,0.5-2.2c-0.7-1.6,0.1-1.9,1.4-1.9c1.1,0,1.7,0.8,2.9,0.5l1.4-0.1l-1.6-3
			c0.2-0.4,0.1-1.3,0-1.6c-0.2-0.6-0.4-1.4-0.1-2.2c0.2-0.6,1-1.1,1.3-1.6c-0.5-0.7-0.8-1.2-1.8-1.4c-0.8-0.1-1.2,0.2-2-0.4
			c-0.7-0.6-0.8-1.2-1.3-1.9l1.4-5c-0.5,0.7-1.3,0.8-1.8,1.7c-0.8,1.2-2.4,2-3.9,1.9c-1-0.1-1.8,0.1-2.8-0.1c-1-0.2-1-1-1.6-1.4
			l-1-1.7c-0.4,0.1-0.7,0.4-1.1,0.5c-0.4,0.1-0.7,0.2-1.1,0.2c-0.5,0-1,0-1.3,0.4c-0.4,0.2-0.4,0.5-0.4,1l-5.7,1.7
			c-0.2,2.6-0.6,5.1-1.2,7.7c-0.1,0.7-0.4,1.4-0.5,2.2c-0.4,2.5-0.7,5.1-1.7,7.4c-0.4,1-1,1.8-1.6,2.6l3.6,0.8
			c0.5,0.5,0.6,1.1,1.4,1.1c2.4,0,4.7-0.5,6.5,1.4C164.6,342.8,163.8,343.1,163.8,344z"/>
		<path class="st1" d="M194.7,376.8c-1.1-0.2-1.7,0.4-2.5,0.7c-2,0.7-2.5,0-2.5-1.9c0-0.8-1.7-0.2-2-0.1c-1.4,0.2-2.3,1.1-3.6,0.4
			l0.2,3.5l-1.3,2l-1.8,0.6H181c0,2.3-0.7,2.6-2.6,3.8c-1.3,0.8-3.7,3.2-5.1,3.5c-1.7,0.2-1.9,0.8-3.2,1.8c-0.6,0.5-2.5,3.2-2.5,3.2
			c-1,0-2,0.1-2.8,0.7c-0.8,0.8-1.7,2.2-2.3,3.2c0.7,0,1.2,0.2,1.9,0.1c0.6-0.1,1.2-0.1,1.8-0.2c0.5-0.1,1.2-1.1,1.8-1.3
			c0.8-0.4,2.3-0.2,2.6,0.7c0.2,0.5,0,2.4,0.4,2.5l-0.1,1.8c0.4,0.2,1,0.8,1.4,0.7c0.1,0,0.5-1.6,1.6-1.6c0.7,0,1.2,0.2,2,0
			c1.2-0.4,1.1-1.2,1.9-1.9c0.8-0.6,2.6-0.5,3.6-0.5c0.7,0,1.4,0.2,2.2,0c0.4-0.1,0.8-0.4,1.2-0.6c0.2-0.2,0.4-0.4,0.7-0.5
			c0.5-0.1,0.7,0,1.1-0.4c0.4-0.4,0.8-1,1.3-1.2l1-0.5l2.9-2.5c0-1.1-0.2-1.7,0.8-2.2c0.4-0.2,1.3-0.7,1.1-1.3
			c-0.6-1.1-1.6-2.8-0.1-3.6c0.7-0.5,0.6-1.1,1-1.8c0.4-0.6,0.7-1.9,1.3-2c0.5-0.1,1.2-0.5,0.8-1.1c-0.5-0.8,0.2-0.7,0.6-1.1
			c0.5-0.5,0.1-1.9,0-2.5C195.9,377.5,195.4,377,194.7,376.8z"/>
		<path class="st1" d="M183.3,428.4c-0.2-1.3,1.1-3.3-0.7-3.8c-1.1-0.2-2.2-1.2-3.2-1.3l-0.7,0.7c-0.6,0.2-1.1,0.2-1.7,0.1
			c-0.2-0.1-0.5-0.1-0.8-0.1c-0.7,0-1.4,0.6-1.7,1.3c-0.2,0.6-0.2,0.7-0.8,1c-0.5,0.1-0.7,0.2-1.2,0.5l-1.9,0.2l-2.3,1.8l0.5,3.6
			c0.2,0.7,0.4,2,0.7,2.6c0.6,0.8,1-0.4,1.6-0.1c0.4,0.1,0.2,0.7,0.7,1c0.8,0.4,1.4-1.6,2.9-1.2c0.8,0.2,1.1,1,1.7,1.1
			c1.6,0.4,3.1-0.1,4.7,0c1.6,0.1,2.3,0.2,3.5-1l0.2-2.4c0-0.5-0.4-1.2-0.6-1.6C183.8,430,183.5,429.2,183.3,428.4z"/>
		<path class="st1" d="M280,427.5l-1.3-2c-0.6,0-2.2-0.5-2.6,0c-0.5,0.5,0,2.5,0,3.3c0,0.6-0.4,0.8-0.5,1.3
			c-0.4,1.2-3.9,1.8-1.9,3.1c0.5,0.4,1.4,1.3,1.9,1.3c0.7,0,1.6,0,2.2,0.2c0.8-1.2,1.7-1.9,3.1-2.3c1.1-0.2,1.7-1.6,2-2.5l-0.4-2.5
			H280z"/>
		<path class="st1" d="M388.9,148.5c0.2-1.4,0.1-3,0.5-4.4l-1.3-0.4c-0.5,0-1.1-0.2-1.6-0.4c-0.2-0.1-0.6-0.4-0.8-0.4
			c-1-0.1-1.7,0.5-2.5,0.5l-1.2-1.7c-2,0.2-5.1-0.8-5.3-0.7c-2.5,1.2-0.4,2.9-0.4,4.4c-3.2,0.5-2.8-9.4-4.3-11.4
			c-1.2-1.4,0.5-3.5,1-4.9c0.7-1.7-4.5,0.4-5.7,0.5c-1.1-0.2-2.9-1.6-3.9-0.8c-1.1,0.6-1.9,1.9-3.3,0.7c-0.7-0.6-6.7,0.4-8,0.7
			c-2.3,0.5-3.1,1.8-5.9,1.8c-3.2,0-5.3,2.2-9,2c-1.3,0-1.8-1.8-2.3-1.7c-0.8,0.2-2.3,2.5-3.1,3.2c-0.2,0.2-0.6,0.6-1.1,0.8
			c-1.4,1.3-3.6,3-4.7,3.2c-1.7,1.4-3.7,0.2-5.1,1.1c-1.8,1.1-3.5,2.8-5.5,3.6c-1.1,0.5-2,1-2.9,1.4l0.7,3.7c0.8,0.5,1.8,0.6,2.6,1
			c1,0.2,0,1.8-0.4,2.3c-0.6,0.8-1,1.3-1,2.5c1.8,0.1,3.7-0.4,5.5,0.2c1.1,0.4,1.2,1.8,2.4,2.3c0.6,0.2,1.4,0.4,2,0.5
			c0.6,0.1,0.8,1,1.7,1.2s2-0.1,2.9,0c-0.4,0.8-1.1,1.1-1.1,2c0,1,0.1,1.8,0.1,2.8c0,1-0.2,1.8-0.2,2.6c0.8,0.1,1.7,0.1,2.5,0.4
			c0.7,0.2-0.4,3.8,1.6,2.5c0.7-0.5,2.3-1.8,2.3-0.2c0,1.4,1.9,1.4,1.6,2c-0.7,1.3,1.3,1.6,2.3,2v0.1c-1.8,0.5-3,0.1-4.8,1
			c-0.6,0.2-2.8,0.2-2.8,1.1c0,0.5,2.2,1,1.1,1.4c-1.7,0.7-1.8,1.4-0.2,2.5c0.5,0.4,0.2,2.4,0.1,3c2.4,1.6,4.3,0.7,6.9,1.2
			c0.8,0.1,3-0.1,2.9,1.1c0,0.5-1.4,1.9-1.8,2.3c-1.3,1.2-1,2.5-0.2,3.9c0.8,1.6,0.6,2.4,2.6,2.5c2.3-1,4.1-1.7,6.1-3
			c1.3-1,2.2-2.4,3.3-3.2c1-0.7,1.8-0.4,2.9-0.6c2.8-0.6,5.7-2.4,8.5-0.7l1.6,1.2c0.7,0,1.3,0,1.8,0.5c0.6,0.6,1.2,1.4,2.2,1
			c0.8-0.5,1.1-1.7,2-2c0.8-0.4,0.5,1.3,2,0.1c0.7-0.5,1.7-1,2.5-1c0.4-2.3-0.5-2.8,1.1-4.8c0.4-0.5,1-1,1.2-1.4
			c0.5-1.1-0.1-1.8,1.2-2.4c1.8-1,3-1.9,3.5-3.9c0.2-0.7,0.6-1.6,0.2-2.3c-0.2-0.6-1.2-0.8-1.2-1.2c-2.6-0.4,1.4-3.7,1.7-4.3
			l0.6-1.8c0.4-1.3,0.4-1.4,1.3-2.5c1.6-1.7,0.2-2.3,0.8-4.2c0.4-1.3,2.5-1.6,3-3c0.4-1.1,1.4-1.6,1.7-2.4
			C389.7,151.3,388.7,149.6,388.9,148.5z"/>
		<path class="st1" d="M342.9,276.7c-1.2-1.1-4.8-2.5-5-3.5c-0.6-1.8-3.1-6.5-3.1-6.5c-1.3,0.4-3.8,0.7-5,0.2
			c-1.3-0.5-4.2-1.3-4.7-2.6l-3,2.8c0.5,1.4,2.3,2.3,2.4,3.6c0.1,1.3,1.3,1.2,2.4,1.1c1-0.1,1.4,0,2,0.6c0.8,0.8,2.9,1.2,4.1,1.6
			c1.8,0.5,0.7,1.7,1.8,2.5c0.8,1.1,1.6,0.8,2.5,1.7c1.1,0.8,2.6,4.5,3.2,6c0,0,1.2-1.7,1.2-2c0.6-1,1.1-1.9,2.3-2.8
			c0.4-0.2,0.2-0.1,0.6-0.4c0.5-0.2,0-1.8,0-1.8C342.9,276.6,343.7,277.3,342.9,276.7z"/>
	</g>
</g>
<g id="Elektriciteit_en_Gas">
	<polyline class="st2" points="217,238.4 254.1,207.5 260,205.9 265.7,201.2 	"/>
	<polyline class="st2" points="248.7,292.1 250.6,293.3 252.3,293.3 260.9,297.3 266.1,303 273.7,316.2 275.1,322.1 273.2,322.4 
		271.2,323.4 269.3,328.5 269,330.6 271.3,331.3 272.5,332.1 	"/>
	<g>
		<path class="st3" d="M286.5,163c-1.4,1-4.1,2.4-5.1,3.7c-1.1,1.3-2.3,0.7-3.2,1.9c-0.4,0.5-1.1,2.3-1.3,2.4
			c-1.7,0.6-1.4,0.7-2.4,2.3l-0.4,0.6l-2,3.5c-0.7,1.2-0.2,2.2-1,3.3c-0.5,0.8-2.3,2.3-1.1,3c1.4,0.8,0.5,2.4,0,3.7
			c-0.1,0.1-0.1,0.4-0.1,0.5c-0.5,1.7-0.4,3.3-0.4,5.1c-0.2,1.6-0.6,3.2-2.2,3.6c-2.4,0.7-1.2,1.4-1.7,3.2c-0.1,0.5-1,2-0.8,2.3
			l1.6,2.2c0.6,0.8,1.8,4.1-0.4,3.1c-0.5-0.2-1.6-2-1.7-2c-1.2-0.1-0.5,1.6-0.2,2c0.8,1.3,1.6,1.3,0.7,2.9c-1.2,2,2.3,1.7,2.5,2.4
			c0.5,1.4-0.8,3.5,0.5,4.7c0.8,0.7,1.4,1.6,1.6,2.5c0,0.5-0.1,1.1-0.5,1.7c-0.8,1.4-0.8,0.6-0.7,2.4c0,1.3,1.1,1.9,0.8,3.3
			c-0.1,0.8-0.6,1.4,0,2.4c1.4,2.3-1.2,2.2,0.1,4.1c0.5,0.7-2,0.8-2,2.2c0,1.6,1.7,2.5,1.7,4.3c0.1,3.8-0.6,3.2-3.6,4.1
			c-1,0.2-2,2.3-3.1,3c-2,1.4-0.6,1,0,3c0.5,1.9,1.6,1.2,3,2.3c1.6,1.1,2.4,3.2,3.9,4.3c0.5,0.4,1.9,0.5,3.3,0.5
			c1.2,0,2.4-0.2,2.6-0.7c0.5-0.7,1.8,0.1,2.5,0.1c2.4,0.5,3.6,1,5.4,2.6c1.3,1.2,3.5-0.4,4.4,0.5c0.6,0.6,0.4,1.8,1.7,1.6
			c4.4-1,1.4-6.2,7.2-4.5c1,0.2,3.3-1.4,4.7-1.6c0.5,0,1,0.2,1.1,1c0.6,3.5,7.8,0.7,7.8,3.7c-2.3,1.1-5.1,1.1-7.3,2.5
			c-1.9,1.2-5.1,7.3-6.1,9.4c-1,1.9-1.4,4.5-2.4,6.3c-1.4,2.6-0.8,6-1.1,9.1c0,3-0.2,6.2-0.2,9.2c0,1.3,0.1,2.6,0.4,3.9
			c0.1,0.5,1.4,1.3,1.8,1.9c0.2,0.2,0.4,0.6,0.6,0.8c0.8,1.2,1.9,2.4,2.8,3.6c0.7,1,2.9,4.5,4.2,4.7c2.8,0.1,5.7-0.7,8.5-0.7
			l11.6,0.4c1.4,0,4.4-1.1,3.8,0.8l8.6-2.5c0.6,0.1,1.2,0.2,1.6,0.7c0.7,0.8,1.3,0.7,2.3,0.4c1.4-0.4,3.6,0.6,3.9-1.4
			c0.4-1.7,2.8-1.2,3.8-1.9l5-2.9c0-2.6-3.6-2.6-4.9-4.5c-0.6-0.7-2.2-0.7-3.1-1.1c-1.4-0.5-1.8-1.4-2.8-0.4c-0.5,0.5-1.4-1.9,0-3.1
			c1.4-1.2,3.5-2.5,2.6-4.5c-0.5-1.1-0.6-2.6-1.9-2.8c-1.1-0.1-1.1-2.8-1.4-3.7c-0.5-1.4-2-5.1-3.2-6c-1-0.8-1.7-0.5-2.5-1.7
			c-1.1-0.8,0-2-1.8-2.5c-1.2-0.2-3.2-0.6-4.1-1.6c-0.6-0.6-1.2-0.8-2-0.6c-1,0.1-2.3,0.2-2.4-1.1c-0.1-1.4-1.8-2.2-2.4-3.6l3-2.8
			c0.6,1.3,3.5,2.2,4.7,2.6c3.5,1.3,7.7-0.7,8.7-4.2c1-2.9,2.5-1.4,3.5-2.9c0.4-0.6,1.4,0.6,2.3-0.1c0.5-0.4,1.1-1.7,1.8-1.4
			c0.4,2,0.5,5.1,3.1,5.7c1.2,0.2,3.9-2.5,4.1-1.1c0.4,2.9,4.8-1,4.4-1.6c-1.7-4.3,1.1-1.1,4.1-3l4.5-3.7c2.6-1.7,5.1-4.5,8.1-5.5
			c2.6-1,5-4.3,6.8-6.5c0.5-0.6,1.3-0.8,1.8-1.3c0.5-0.5-0.2-1.7,0.1-2.5c1.1,0,1.9-0.7,3-1c1-0.2,1.2,0.4,1.9,0.8
			c1.2,0.7,2.9,0.2,4.2,0.7c1.3,0.6,2.6,3.5,3.7,3.6c1,0.1,3.6-2.3,4.4-2.9c1.2-1,1.9-2.4,3.2-3.3c0.6-0.5,1.8-1.3,2-2
			c0.2-0.5,0-0.7,0.4-1.3c0.6-1.1,1.1-1.7,1.8-2.5c1-1.2,0.1-2.3,0-3.5l-0.6-2.4l-2-2.4c-1.7-2.8-3.1-5.7-4.7-8.6
			c-1.7-2.9-0.1-5,0-7.9c0-1-4.1-1.1-4.9-1.2c-0.1-0.2-0.5-0.5-0.7-0.7c-0.2-0.1-0.4-0.4-0.5-0.6c-0.4-0.4-0.7-0.6-1.1-0.8
			c-0.2-0.1-0.2-0.2-0.2-0.5c0-0.6,0.2-1,0.6-1.4l-3.6-2.3l-1.1-0.6c-1-1-1.7-1.9-2.9-2.6c-1.4-0.8-3.2-0.5-4.8-0.5
			c-1.1,0-2.2,0.5-3.2,0.4c-0.6,0-2-2.3-2.3-2.9l-1-1.7l-0.2-5c-0.8,0-1.8,0.5-2.5,1c-1.6,1.1-1.2-0.5-2-0.1c-1,0.4-1.2,1.6-2,2
			c-1,0.5-1.6-0.4-2.2-1c-0.5-0.5-1.1-0.4-1.8-0.5l-1.6-1.2c-2.8-1.7-5.6,0.1-8.5,0.7c-1.1,0.2-1.9-0.1-2.9,0.6
			c-1.2,0.8-1.9,2.3-3.3,3.2c-2,1.4-3.8,2-6.1,3c-2-0.2-1.8-1-2.6-2.5c-0.8-1.4-1.1-2.6,0.2-3.9c0.4-0.4,1.8-1.8,1.8-2.3
			c0.1-1.2-2-1-2.9-1.1c-2.6-0.5-4.5,0.4-6.9-1.2c0.1-0.6,0.4-2.6-0.1-3c-1.6-1.1-1.6-1.8,0.2-2.5c1.1-0.5-1.1-1-1.1-1.4
			c0-0.8,2.2-0.8,2.8-1.1c1.8-0.8,3-0.5,4.8-1v-0.1c-1-0.5-3-0.7-2.3-2c0.4-0.6-1.6-0.6-1.6-2c0-1.6-1.6-0.2-2.3,0.2
			c-1.9,1.3-0.7-2.3-1.6-2.5s-1.6-0.2-2.5-0.4c0-1,0.2-1.7,0.2-2.6c0-0.8-0.1-1.8-0.1-2.8c0-1,0.8-1.2,1.1-2c-1-0.1-2,0.2-2.9,0
			c-1-0.2-1.2-1.1-1.7-1.2c-0.6-0.1-1.4-0.2-2-0.5c-1.2-0.5-1.3-1.9-2.4-2.3c-1.7-0.7-3.6-0.2-5.5-0.2c0-1.2,0.4-1.7,1-2.5
			c0.4-0.5,1.3-2,0.4-2.3c-0.8-0.2-1.8-0.5-2.6-1l-0.7-3.7c-2.9,1.6-5.1,3-8.8,3c-1.1,0-1.6,1.3-2.4,1.8c-0.8,0.4-2.3,0-2.9,0.7
			c-2,2.4-5.3,4.2-7.7,6.6c-1.1,1.1-1.6,3.3-2.8,4.5C287.6,162.7,287.1,163,286.5,163z"/>
		<path class="st3" d="M462.5,451.3c-1.9-1.3-7.3-4.3-8.3-6.1c-2.4-5-6.2-3.1-10.4-4.2c0.1-0.5,0.1-1,0.2-1.4c0-0.5,0-1,0-1.4
			c0-1.1,0.5-1.4,1-2.5c1.2-2.9-1-1.7,2.4-2.2c1.8-0.2,3.1-1.3,4.5-2.3c1-0.7,1.1-0.2,0.7-1.7c-0.6-1.7,1-1,1.3-2.8
			c0.2-1.1,0.2-2.8,0.2-3.9h-6.8c-1.3-0.6-2.4-1.8-3.7-1.8c-1.3-0.1-2.6-0.4-3.8-0.4l0,0v-0.1c0.7-0.2,1.9-1.9,2-2.6
			c0.2-0.8,0.6-5,0-5.6c-1.2-1.1-2.4-1.6-3.7-2.4l-1.1,1.3c-1,0-0.4-1.2-2-0.6c-0.8,0.2-1.1,1.9-1.6,2c-0.2-0.6-0.8-1.2-1.2-1.8
			c-0.5-0.6-0.1-1.7-0.2-1.8c-1.1-1.1-4.7,0-6,0.2c-1.4,0.2-2.8-0.2-4.1-0.5c-2-0.4-3.1,0.7-4.8,1.1l-1.6-1.9
			c-0.2-0.8-1.6-1.3-1.7-2.2c-0.1-0.6-0.1-1.3-0.2-1.8c-1.3-0.2-2.4-1.2-2.8-2.4c-0.6-1.6-1.7-1.9-3-3c-1-0.8-1.2-2-1.2-3.2
			l-5.4-0.6l-3.5,0.2c-1.4,0-2.5,1.6-3.1,2.6c-0.6,1.1-2.8,1.3-3.9,1.3c-1.3,0-1.2-0.7-1.9-1.1c-1.2-0.7-2.6,0.7-3.8,0.5
			c-0.6-0.1-1-0.7-1.7-0.7c-0.8,0-1.6,0.2-2.4,0.2c-2,0-5.4,0.6-6.9-0.7c-1-0.8-2.6,1-3.2,1.7c-1.1,0-1.8,0-2.2-1.1
			c-0.2-1-0.6-1.9,0-2.8c0.2-0.4,1.3-0.7,1-1.1c-0.4-0.5-2,0-2.8-0.2c-1.3-0.6-0.8-2.6-1.4-3.7c-0.8-1.8-1.8-2.5-1.8-4.7
			c0-1.7-0.7-0.6-1.1-1.6c-0.1-0.2,0-1.4,0-1.8c-1,0-2.5,0.1-2.8-1c-0.2-1-0.1-2.2-0.2-3.2c-0.1-0.6-1.4,0.2-1.4-0.4
			c0-0.4,0-0.7,0.2-1c0.6-0.8,0.5-0.7,0.2-1.9c0-0.7,0.1-1.7,0-2.4c-0.1-0.5,0-1.6,0.5-1.8c0.6-0.2,1.1-0.4,1.6-0.8
			c0.4-0.4,1.2-1,0.1-1.1c-0.6-0.1-0.8-0.2-1.2-0.8l-0.5-1.2c0-1.7,2.6-1.3,3.7-1.4c1.2-0.1,3.5-2.4,3.1-3.6
			c-0.2-0.8,0.7-2.4-0.4-2.8c-1.6-0.6-1.6-2.3-1.6-3.6c0-0.7,0.7-1.4,1.1-2c0.7-1.4-0.6-1.6-1-2.8l-1.2-1.3l-0.2-1.9l0.1-2.2
			c-0.2-2.6-1-3.5-3.5-4.2c-2-0.6-2.4-2-2.9-3.8c-0.4-1.6-2-1.4-3.2-2c-0.7,1-2.2,0.2-3.2,0.4c-0.4,0.1-0.5,0.1-0.6,0.4
			c-0.1,0.2-0.2,0.4-0.5,0.7c-1.9,0.7-5.4,7.8-6.7,3.7c-0.7,0-1.7,1-2.3,1.3c-0.2,0.1-1.9,1.4-2,1h0.1c-0.2-1.1-1.3-2.3-1.4-3.5
			c-0.1-0.8-1.6-3.9-2.2-4.7s-2-2.3-2.3-3l-2.5,1c0,1.1,0,2.2-0.2,3.1c-0.6,2.8-1.9,5.6-3,8.1c-0.8,1.9-2.9,2.5-3.2,4.8
			c-0.4,2.3-2.8,5.1-4.5,6.8c-0.6,0.7-2.6,2.3-4.3,3.5c-0.7,0.5-1.4,0.8-1.8,1c-2.3,0.7-2.6,2.8-4.3,3.6c-1,0.5-2.4,0.6-3.5,1.1
			c-0.4,0.1-0.6,0.4-1,0.5c-1.2,0.7-2.4,1.6-3.6,2.3c-1.3,0.7-4.5,2.4-5,3.8c-0.6,1.9-3.2,4.5-5.5,6c-0.6,0.4-1.1,0.7-1.6,1
			c-1.2,1.2-1.7,3.7-2.4,6.1c-0.8,3.3-1.9,6.7-5.1,6.7c-1.3,0-3.3-0.2-4.4,0.6c-0.4,0.4-0.7,0.6-1.2,0.7c-1.1,0.5-2.4,0.6-3.8,1.3
			c-1.6,0.7-4.7,1.7-6.7,1.1l-1.1,6.3c0.8,0.1,1.4,0.1,1.6,1c0.2,0.8,3.3-0.8,3.7,1.2c0.5,2.3,0.4,4.9,1.1,7.1
			c0.4,1,0.8,1.7,1.4,2.5c0.5,0.7,2.2,0.2,2.8,0.2l1.6-0.1l-0.5,3.9c0.5,0.4,0.7,0.5,1.2,0.5c0.5,0,0.8-0.1,1.2,0.2
			c0.7,0.7-0.6,1.1,0.8,1.4c0.7,0.2,1.2-0.1,1.6,0.7c0.5,1.2-0.2,1.4-1.3,1.4c-0.7,0-1.4,0.7-1.1,1.4l0.8,2l-0.1,1.2l1.3,2h2.4
			l2.8-1c0.5,0.7,1.4,2.5,1.3,3.5c0,0.6-0.5,1.2,0,1.7c1.1,1.2,0.1,1.1-0.2,2.3c-0.4,1-0.2,2.9-0.2,3.9l0.1,2.2
			c0.5,0,1.1,0.1,1.6,0.2c0.7,0.2-0.1,1,0,1.4c0.2,0.4,0.7,0.8,1.1,1.1c0.4,0.5,1.1,1.2,1.3,1.8c0.4,1,0.4,1.8,0.4,2.9v2l2.9,2.6
			l0.2,1.9c0.1,0.6,0.6,1.7,1.1,2c0.4,0.4,0.6,0.8,0.6,1.3c0,1-1.4,1.3-0.7,2.4c0.6,0.7,0.8,0.6,0.7,1.7c-0.2,1.1-1.8,1.8-2.6,2.2
			l-3-1.3l-3.8-1.3c-0.7-0.4-0.8-0.6-1.3-1.2c-0.2-0.2-0.5-1-0.7-1.1c-1-0.5-1.9-0.2-2.9-0.7c-0.5-0.2-1-0.7-1.6-1.1
			c-0.8-0.6-1.7-1.2-2.6-1.7c-1.9-0.4-3.8,0.8-5.6-0.6c-0.5-0.4-1.2-0.6-1.8-0.1c-0.8,0.7-1.6,1.3-2.5,1.8c-1.6,0.7-2.3,1.7-4.1,0.8
			h-0.1l-1.7,1.2c-0.8,0.4-2-0.8-2.9-0.6c-1.6,0.4-1.4,1.6-2.3,2.6c-0.4,0.6-1.6,0-2.3,0.5c-1.2,0.8-1.8-0.4-2.5-1.1
			c-1.3-1.1-3.5-0.7-5.1-0.6l-2-2.3l-0.7-0.5c-0.7-0.6-2.8-0.1-3.2,0.5c-0.5,0.6-1,2.6-1.6,3c-0.5,0.2-1.7,0.1-2.3,0
			c-1.3-0.2-1.8-1.4-3.3-1.4l-0.7,1.7c-0.4,0.5-0.1,1.1-0.2,1.6c-0.1,0.4-0.1,0.7-0.2,1.1c-0.2,0.7-1.2,1.7-1.8,2
			c-0.4,0.2-0.7,0.5-1.1,0.7v1.8l-1.1,1.9c-0.4,0.4-0.4,0.7-0.7,1c-0.2,0.1-0.5,0.2-0.7,0.4c-0.6,0.6-0.5,1.1-0.6,1.9
			c0,0.4-0.4,1.1-0.6,1.3c-0.6,0.6-0.8,1.3-1.4,1.9l-1.8,0.2c-0.7,0.4-1.2,0.1-1.9,0.6c-0.8,0.6-0.4,1.1-0.6,1.8
			c-0.5,1.3-2.9,0.4-3.7,1.8c-0.8,1.4,0.5,1.8,0.2,2.8c-0.1,0.4-0.8,0.1-1.1,0c-1.4-0.6-2.5,0.1-4.1,0c-0.4,0-0.5-0.2-0.7-0.4
			c-0.1-0.1-0.2-0.2-0.4-0.2c-0.4,0.1-0.6,0-0.8,0.2c-0.2,0.2-0.2,0.4-0.6,0.2c-0.4-0.1-0.6-0.5-1-0.5c0,0.4,0,0.8,0,1.2
			s-0.1,0.4-0.4,0.8c0.1,0.5,0.2,1.3,0.7,1.4c0.4,0.1,0.8,0.2,1.2,0.4c0.4,0,0.7,0.2,1.1,0.4c0.5,0.1,1,0,1.4,0.1
			c0.5,0-0.1,2-0.1,2.3c0,0.4-0.1,0.8-0.2,1.2c-0.1,0.4,0.1,1.1-0.1,1.3l-1.8,0.1c-0.4,0.5,0.1,1.2,0.4,1.8c0.2,0.5,1.6,1.3,2,1.8
			c0.5,0.5,0.7,1.1,1.3,1.4c0.8,0.5,2.4,0.6,2.9,1.4c0.5,0.7,0.6,1.7,1.1,2.5l1.3,0.7c1.1-0.2,1.8-1.9,2.9-1.9c0.5,0,1,0.8,1.4,1.2
			c1,0.7,3.5,0.8,3.8,1.8c0.2,0.8,0.1,1.6,0.6,2.4c0.7,1.3,0.4,2.3-1,2.9c-1.7,0.8-1.1,1.7-1.1,3.3c1,0,1.2,0.1,1.9-0.5
			c1.2-0.8,1.9-0.7,3.2-0.6c0.5,0,1.1,0.1,1.6,0.1c0.5,0,1.1-0.2,1.6-0.2l3.8,0.1c0.6-0.4,1.3-1.2,2-0.5c1,1,2.2,1.8,3.3,2.4
			c0.5,0.2,1.7-1.6,2.5-1.8c0.7-0.1,1.6-0.2,2.3,0.1c1.3,0.6,2.2,1.4,3.5,0.1c1.4-1.4,1.8-2.2,3.8-2.4l2.5-0.7
			c0.1-1.1,1.1-1.9,1.3-2.9c0.4-1,0-2,0.4-3c0.8-2,1.3-3.8,2.6-5.6c0.8-1.2,2.2-2,2.9-3.3c0.5-1-0.4-1.3,1.2-1.9
			c0.8,2.3,2.2,3.8,4.7,3.7c0.8,0,1.7,0.1,2.5-0.1c1.8-0.4,2.2-1.7,2.6-3.1c0.4-1.2,3.8-1.6,4.2-0.5c0.5,1.7,2.9,0.7,3.3,2.5
			c2.2,0.2,1.6-0.7,2.5-2c0.8-1.1,2.6-0.7,3.8-0.7c1.4,0,2.6,0,3.9-0.2c0.7,0.6,0.8,1.8,1.9,1.8c1.3,0,3-0.1,3.6,1.2
			c0.4,0.8-0.2,1.4,0.7,2.4c0.6,0.7,1,1.2,1.4,1.9c0.5,0.7,2.4,1.2,3.3,1.4c1.2,0.4,1.1,1,1.3,1.9c0.6,0.2,2,1.2,2,2l0,0l2.4-0.1
			c0.7,0.6,1.7,1,2,1.8c0.5,1.2,0.5,2.3,1.9,2.6c1.2,0.4,2.9-0.4,4.1-0.4c1.2,0,2-0.4,3.1-0.6c1.1-0.2,1.8-0.5,2.9-0.5
			c0.5,0,1-0.1,1.4,0c0.5,0.1,1.1,0.1,1.6,0l2.5,0.7c0.2-0.2,0.7-1,0.7-1.3c0-0.5,0-1-0.4-1.3c-1.3-1.6,1.6-1.8,2.5-2
			c0.4,0.2,2.8,2.2,2.9,2.5c0.2,1.2,1.9,0.8,2,2.2c0,0.4,0,0.8,0.2,1.1c0.5,0.5,0.6,0.6,1,1.2l0.5,1.6l2.4-0.4
			c-0.5-1.9,1.2-3,2.9-3.3c1.7-0.4,2.9-1,2.9-3c0-1.1-2.2-0.4-1.9-2c0.2-1.1,2.3-1.7,0.5-2.4c-2.4-1-0.4-3.8-2-4.4
			c-0.5-0.1-3.6-0.2-3.1-0.8c0.1-0.1,0.2-0.2,0.5-0.2c1.3-0.6,1.2-1,0.7-1.9c-0.6-1,0.8-3.2,1.7-3.6s0.8,0,1.4,0.4
			c1.2,0.7,2.4,0.1,3.6-0.2c1.2,0.1,1.6-0.5,1.9-1.1c0.4-0.5,0.6-0.8,1.3-0.8c1.7-0.1,2.9,0.5,4.2-1.6c0.6-1,0.8-2.8,2.3-2.8
			c0.5,0,1.8,2.5,2.6,2.8c1.7,0.5,4.1,0,6,0.7c1,0.4,4.3,1.3,5.1,1.3c0-1.6-0.4-4.8-1.7-5.6c-2.8-1.9-1.2-0.8-2.5-3.8
			c-0.7-1.6-1.9-1.3-3.2-2c-0.2-0.1-0.4-0.2-0.5-0.5c-0.4-0.8,0.7-2.2,1-2c2.5,1.6,3.3-0.1,5.6-0.1c0.1,0,0.4,0,0.5,0
			c0.8,0.1,3.6,2,3.7,2.8c0.1,1.4-1.8,0.6,0.1,2.5c0.7,0.6,5.3,3.9,6,2.3c1.3-3,3,1.9,4.1,0c0.6-0.1,1.7-1.6,2-1.4
			c0.6,0.2,1,1.1,1.7,1.2c0.8,0.2,1.2,0.4,1.4,0.5c0.2,0.2,0.1,0.7,0.5,1.8c0.1,0.4,0.5,1.8,0.8,1.8c1.8,0.1,3.1-1.7,5.1-0.4
			c1.7,1.1,2.9,0.1,3.6,2.4c-0.5,1.8,0.2,1.8,2.2,1.9c1.3,0,2.2,1.3,3.5,1.4c1,0-1-2.2-1-2.6c-0.1-0.7,0.2-2,0-2.6
			c-0.8-2.2-1.9-0.8-1.8-3.8c0.1-2.8,1.7-1,3.6-0.6c2,0.4,1.6,2.4,2.9,2.4c1.4-0.1,1.3-1.6,2.4,0.2c0.5,0.7,1.1,1.1,1.7,1.2
			c1.4,0.2,3.2-0.8,4.3-1.3c1.7-0.7,1-3.2,2.5-3c0.5,0.1,1.9-0.6,2.8-0.7c1.2-0.2,1-1.2,1.7-1.8c1.1-1,2.4-0.4,3.8-1l6.2-2.9
			c2.8-0.6,4.3-2,6.6-3c0.6-0.2,1.3-0.5,2.2-0.7c2.4-0.5,4.3,2.4,5.3,4.3c2.5,0,6-5.1,8.4-5.9c1.6-0.5,1.6-1.9,2.6-3.1
			c1.4-1.6-0.1-4.5,1.7-7.1c0.8-1.1,2.3,0.6,3.2-1C464.2,456.7,463.2,451.8,462.5,451.3z M225.6,493.4c0.2,0.1,0.5,0.1,0.7,0.1
			C226.1,493.5,225.9,493.4,225.6,493.4z M226.5,493.5c0.1,0,0.4,0,0.5,0C226.8,493.5,226.6,493.5,226.5,493.5z M227.1,493.5
			c1.1-0.1,1.7-0.6,2.9-0.8C228.7,492.9,228,493.4,227.1,493.5z M229.9,492.7c1.1-0.1,1.6,0.7,2.4,1.2
			C231.5,493.4,231,492.7,229.9,492.7z M232.6,494c-0.1,0-0.2-0.1-0.4-0.2C232.3,493.9,232.4,494,232.6,494z"/>
		<path class="st3" d="M324.4,320.7c-2.2-3.5-6.9-1.9-11-2.9c-3.5-0.8-6.7-2.9-10.2-3.5c-2.6-0.4-1.4-1-2.8-2
			c-0.7-0.6-7.2,1.4-9.8,2.4c-0.6,0.2-1.1,0.4-1.2,0.5c-1.1,0.8-1.7,1.9-2.8,2.6c-2.4,2-4.7,3.9-6.7,6.1c-1.4,1.6-4.4,0-6.2,0.5
			l-0.1,0.1c-0.4,2.2-1.3,3.7-2,5.7c-1,2.6,0.5,5.1-3.6,5.1c-1.3,0.8-1.2,1.4-1.8,2.5c-0.6,1-1.6,0.2-2.2,0.7
			c-2,1.8-3.9,2.9-6.3,4.4c-2.3,1.4-8.1,4.5-12.1,7.5c-1.9,1.4-3.5,3-3.7,4.2l-7.5,3.9l-8,5.6c0,2,2.3,3.5,2.3,5.7
			c-0.2,0.5-1,1.4-0.7,2c0.2,0.5,0.7,0.7,1,1.1c0.4,0.6,0,1.6,0.5,2.2c0.2,0.2,1,0.5,1.3,0.4c0.4-0.1,0.6-0.4,1-0.5
			c0.5-0.1,0.7-0.2,1.2-0.2l0.5-0.4c1.1-0.4,4.7-1,5.7-0.2c1.7,1.2,1.7,1.7,3.9,1.7c3.8,0,3.8,2.4,6.6,3.5c1.9,0.7,2.6,1.1,4.1,2.3
			c0.2,0.1,0.4,0.4,0.6,0.6c0.7,1.6,3.5,3.3,4.9,4.5l3.8,3.1c0.7,0.6,0.6,1.6,1.1,2.2c0.5,0.7,2,0.1,2.9,0.8
			c1.1,0.7,2.6-0.4,3.5-1.1c2.2-1.8,5.1-0.7,7.2-2c1.9-1.9,5.6,0.1,6-3.6c0.2-2.2,1.9-3.2,1.6-5.4c-0.2-1.1,1-2.5,1.3-3.7
			c0.7-2.4-1-2.8-2.3-4.2c-1.1-1.2,3.3-5.1,4.2-6c0.6-0.6,2.3,1.1,3.5,0.8c1.1-0.2,2.3-1,3.3-1.8c2.3-1.9,4.4-4.8,6-6.6l8.5-4.2
			c1.9-1,2.8,2.5,5.6,0.5c3.8-2.6,5.7-7.5,8.5-11.1c1.3-1.8,4.4-7.7,5-9.8c0.4-1.6-0.5-3.5,0-5C330.4,325,326.7,324.2,324.4,320.7z"
			/>
		<path class="st3" d="M225.8,344.6c-0.5-0.4-0.7-0.8-1-1.3c-0.1,0-0.2,1.2-0.4,1.4c-0.1,0.6-0.4,1.3-0.5,1.9l-0.4,1.2
			c0.6,0.2,1,0,1.4-0.1c0-0.5,0.6-0.8,1-1c0.5-0.2,0.7-0.2,0.8-0.8C227.4,344.6,226.6,345.2,225.8,344.6z"/>
		<path class="st3" d="M228.4,258.4C228.4,258.4,228.4,258.5,228.4,258.4c0,0.1,0,0.1,0,0.2V258.4z"/>
		<path class="st3" d="M208.7,384.7c0.1-0.6,1-1.9,1.3-2.3c0.6-0.5,1.9-0.8,2.6-1l-0.1,3.8c0.6-0.2,0.5-0.4,1,0
			c0.4,0.2,0.8,0.6,1.2,0.5c0.5-0.2,0.7-0.2,1.1-0.6c0.6-0.5,1.2-0.2,1.9-0.2c0.5,0,0.7,1,0.7,1.3h-1c-0.4,0.1-0.6,0.5-1.1,0.5h-0.7
			c-0.7,0-1.1,0.7-1.4,1.2c-0.5,0.5-1.2,0.4-1.9,0.4l-0.2,2c0.8,0.6,1.2,0.8,1.3,1.9c0.1,1.3,0.8,0.5,1.7,0.5l0,0
			c0,0.7-0.1,1.3,0.2,1.9c0.4,0.6,1.7,1.2,1.8,1.8c-1.2,0.4-2.3,1.2-2.4,2.5c-0.1,1,0.1,2.5-0.1,3.5c-0.2,0.7-0.8,1.2-1.7,1.3
			c-0.5,0.1,1.7,1.4,1.7,2c0,1.1-0.4,1.8-0.4,3h1.2l-0.1,3.5c1.7,0.4,3,0.1,4.5-0.5c1.4-0.6,2.9-1.4,4.4-1.9l1.9-0.4
			c1.3,0.2,2.6,0.7,3.9,0.7c1.7,0,3.2,0.2,4.8,0.4c1.8,0.1,1.8,0,2.5-1.6l0.6-1.9l1.6-2.8l0.2-2.4l1-1.8c0.2-0.7,0.4-1.2,0.7-1.9
			c0.4-0.6,0.8-1.2,1-1.9c0.1-0.2,0.1-0.5,0.2-0.8c0-0.4,0-1,0.1-1.2l0.5-2.3l3.1-5.3l2.4,0.7l3.6-0.4c-0.8-0.8-2-2.3-1.8-3
			c0.4-1.6-0.1-1.3-1.2-1.6c-0.2-0.1-0.5-0.1-0.8-0.4c-0.1-1.2-3.5-1.2-3.9-3.3c-0.5-0.1-1.4,0.6-2.2,0.7c-0.5,0-0.8,0.1-1.3,0.1
			c-0.7,0-1.4,0-2.2,0c-1.7,0.4-5.9,3-6.8,1.6c-1.4-2.2-2.4-3-4.4-4.5c-1.1-0.8-2.5-0.6-3.2-1.3c-0.5-0.5-0.5-1.2-1.2-1.6
			c-1.4-0.6-3.7-1.2-5.1-0.5c-1.8,0.8-2.6,0.6-3.1,0c-0.6-0.8-0.5-2.5-1.7-2.5c-1.9,0-2.5,1.3-4.4,0.2c-1.9-1.1-0.7-1.8-2.5-2.5
			c-0.1,0-0.2-0.1-0.2-0.1c-2.6-1.1,0.6-1.7,0.6-2.6c-0.4-0.1-3.7-2.6-1.7-2.4c1.2,0.2,2,1.4,3.1,1.4c3.6,0.2,1.7,1.2,3.9-1.9
			c1-1.3,2.2-2.6,2.9-4.2c0.5-1.1,1.3-1.8,2-2.4c1.1-0.8,2.3-1.6,3.1-3c0.6-1.2,2.9-1.4,2.9-2.8c-0.6,0-0.8,0.6-1.6,0.5
			c-0.7,0-1.3-0.2-2.2-0.2c-1.1,0-2.4-2.5-2.3-3.6c0.1-1.1,1.3-1.7,1.3-2.6c-0.8,0-1.7,0.7-2.6,0.7c-0.5-1.7,1.2-0.5,1.4-1.6
			c3.1,0,1.7-1.4,1.4-3.2c-0.1-0.8,0-1.3,0.1-1.6c0.5-0.7,1.7,0.6,2.3-1.3c0.2-1,1.8-1.8,1-2.9c-1.1-1.3-2.2-2.2-2.4-3.9
			c0-0.1,0-0.1,0-0.2c-0.5-2.5-3.2-5.6-3.1-7.8c-2.2-2.4-1.2-9.6-2-10.4c-0.5-0.6-0.8-1.3-1-2c-0.2-1.1,0-2.4,0.6-3.3
			c0.5-1,1.3-1.7,2.4-2c0.4-0.1,1.9-1.1,1.9-1c0.6,0.1,0.8,2.2,1.9,1.9c0-0.1,0.1-0.1,0.1-0.2c0.1,0,0.7-1.2,1.9-1.6
			c1.8-0.5,1.8,0.2,2.8,1.1l0.2-2.9l-0.2,2.9l0,0l0,0l0.2,0.2c1.4,1.1,3.7,3.1,5,3.1c1.9,0,2.9-0.5,4.1-1.9c1.6-1.7,5-1.3,5-1.7
			c0.4-1.3,2.8-3.1,3.7-4.4c1.3-2,1.1-2,1.6-4.4c0.6-3.3,1.3-0.7,3.2-1.8c1.4-0.8,4.1-4.5,4.9-4.7c0-0.6-1.3-1.6-1.4-2.4
			c0-0.8,0.2-5.7-0.1-6c-0.2-0.1-1.9-1.1-3.1-1.7c-0.6-0.4-1.1-0.5-1.2-0.6c-2.4-0.5-7.8-1.7-9.1,0.2c-1.7,2.4-1.3,2.6-3.5,2.2
			c-0.4-0.1-0.7-0.1-1.1-0.2c-0.8-0.2-3.1-2.3-4.2-4.1c-0.7-1.2-1-2.2,0-2.4v-0.2c-1.4-0.5-2-0.8-2.3-1.3c-0.2-0.6,0-1.6,0-3.3
			c0-3.5,1-8,1.7-11.4c-0.2-2.4-2.2-3.5-3-5.5c-0.7-1.8-1.4-4.5-2.5-6c-0.7-1-1.7-1.8-2.4-2.8c-0.8-1.1-0.4-3-1.1-4.1
			c-0.4-0.5-1.4-0.4-1.6-1.1c-0.1-0.8,0.2-1.9,0.1-2.5c-0.1-0.6-2.4,0.4-2.6,0.5c-1.7,1.3-1.4-0.2-2.9-0.2c-1,0-1.4,0.5-2.5,0.6
			c-4.8,0-1.9,5-5.6,6.6l-5.6,2.4l-3.5,1.4c-2.2,1-3.1-3-5.4-3.8c-1.3-0.5-2.5-1.3-3.5-2.4c-1.7-1.7-2.6-3.9-2.3-6.5
			c0.1-1.2,1.9-4.3,1.4-5.1c-1.1,0-1.2,2.3-2.5,2.2c-1-0.1-0.2-1.9-1.2-1.9c-2,0.1-3.7-0.2-5.6-0.2c-3.2,0-2.8,14.2-3.5,16.1
			c-0.1,0.6-0.1,1.1-0.1,1.4c-0.1,1.3-0.4,2.3-1.2,3.8c-0.7,1.6-1.1,2.9-1.1,4.5c0,3.6-1.9,6.2-3,9.4c-0.7,2.3,1.1,3.2-1.6,3.6
			c0,2.2-0.7,5-1.7,6.9c-0.1,0.5-0.2,1-0.4,1.4c-0.8,2.4-2.2,4.4-2.2,6.9c0,3,0.5,5.7-0.7,8.6c-1,2.4-0.7,2.5-0.4,5.1
			c0.4,2.4-1.3,4.3-1.3,6.7c0,1,0.2,2.5,0.2,3.3c-0.1,1.2-1.1,2-1.4,3.2c-0.5,2.4-0.7,4.8-1,7.3l5.7-1.7c0-0.5-0.1-0.7,0.4-1
			c0.4-0.2,0.8-0.4,1.3-0.4c0.4,0,0.7-0.2,1.1-0.2c0.4-0.1,0.7-0.4,1.1-0.5l1,1.7c0.6,0.6,0.6,1.2,1.6,1.4c1,0.2,1.8,0,2.8,0.1
			c1.6,0.2,3.1-0.6,3.9-1.9c0.5-0.7,1.3-1,1.8-1.7l-1.4,5c0.5,0.7,0.6,1.3,1.3,1.9c0.7,0.6,1.1,0.2,2,0.4c1,0.1,1.3,0.7,1.8,1.4
			c-0.4,0.5-1.1,1-1.3,1.6c-0.2,0.7,0,1.6,0.1,2.2c0.1,0.4,0.2,1.3,0,1.6l1.6,3l-1.4,0.1c-1.2,0.4-1.8-0.5-2.9-0.5
			c-1.3-0.1-2.2,0.4-1.4,1.9c0.5,1.1,0,1.2-0.5,2.2c-0.5,0.8-2.8,1.6-3.6,1.6l-1.8,1.6v1.7c-0.4,0.5-1.4,0.7-1.6,1.2
			c-0.1,0.8,0,1.6-0.7,2c-0.8,0.7-1.3,1.2-1.8,2.3c-0.8-0.1-2.2-0.7-2.2-1.6c0-1,1-1.2,0-2.3c-1.8-1.9-4.1-1.4-6.5-1.4
			c-0.7,0-1-0.5-1.4-1.1l-3.6-0.8c-0.5,0.7-2.4,3.8-2.4,4.5c0.8,0,6.7-2,5.9-0.6c-0.8,1.3-5,1.9-6.3,2.3c-0.7,0.1,0.2,3.8,0.1,4.7
			c0,0.1,0,0.4-0.1,0.5l5.1,1.2c0.7,0.5,1.4,0.8,2.3,1.2c0.7,0.4,1.6,0.5,1.7,1.4c0.1,0.8-0.1,1.9-0.1,2.9c0,1.3,0.7,3.3-0.6,4.3
			c-0.7,0.6-1.7,0.1-2.3,0.4c-0.2,0.1-0.2,1-0.6,1.2c-1.1,1-1.1,0.7-0.1,1.7c0.5,0.5,0.5,1.8,0.5,2.5c0.7,0.6,1.2,0.8,2,0.8
			c1.1,0,2.2,0,2.4,1.2c0.1,0.4,0.4,0.8,0.4,1.2c0,0.5-0.1,1-0.1,1.3l0.1,1.8l-2.8,0.2l-1.1,2.8l-0.7,2c-0.8,0-1.4-0.6-1.9-1.1
			c-0.6-0.5-1.4-0.6-1.9,0.1c-0.4,0.5-1,0.2-1.4,0.2c-1,0.1-0.8,1.4-1,2l-2.8-1.4l-7.7-3.2c-2.2,3.8-3.6,8.4-6,12
			c-2.6,3.9-4.3,8.6-6.9,12.6c-1.1,1.7-0.8,4.5-2.8,5.4c-0.5,0.7-1,1.4-1.4,2c-2.9,4.3-6.1,9.1-10,12.3l2.9,5.1
			c0.2,0.7,0.4,0.7,0,1.3c-0.5,0.7-0.2,1.7,0.7,1.8c0.8,0.1,1.4-0.5,2.2-0.8c0.6-0.4,1.9-1.1,2.4-0.2c0.4,0.8,0.2,1.3,1,2l4.2-4.8
			c0.5,0.4,0.6,0.7,1.1,1.1c0.4,0.4,3,1.7,3.5,1.2c0.6-0.5,0.8-1.2,1.3-1.7c0.6-0.7,1.4-1.4,2.2-1.9l1.6-1.6l1,1.8l1.9,4.2l-0.1,2.5
			c0.7-0.1,1-0.2,1.4-0.6c1.2-0.6,2.6,1.4,3.3,2l0.7,1.2c0.1,0.4,0.4,1.1,0.7,1.3c0.1,0.1,0.5,0.2,0.6,0.4c0.4,0.4,0.7,0.4,1.1,0.7
			c0.4,0.4,0.7,0.8,1.1,1.2l1.7,0.8c-0.1,0.8,0.2,4.7-0.2,5c-0.7,0.5-0.6,6-1.1,7.4c-0.4,1-1.8,2.2-1.6,3.2c0.2,1,0.2,1.9,0.2,2.9
			l-0.4,1.3c0.6,0.2,2.8,1.3,2.5,0c-0.1-0.7-0.7-1.9-0.2-2.4c0.4-0.5,0.8-0.4,1.3-0.7c0.4-0.2,0.6-0.7,1-1.1
			c0.2-0.1,1.1-0.5,1.3-0.4c0.8,0.4,0.5,0.7,1,1.2c-0.1,0.7-0.4,1.4-0.1,2.2c0.2,0.5,0.5,0.8,0.5,1.4c-0.5,0.1-1.1,0.2-1.4,0.5
			c-0.5,0.2-1.2,0.7-1.3,1.2c0.8,0.6,1.6,0.6,1.9,1.6c0.1,0.5,0.1,1.2,0.4,1.6c0.5,0.6,1.2,1.6,1.9,2c0.4,0.2,0.6,0.6,0.7,1
			c0.1,0.2,0.5,1,0.5,1.2l1-1.1c0.1-0.5,1-0.8,1.2-1.2c0.1-0.1,0-1,0.1-1.2c0.1-1,1.4-1.1,1.4-2c0-0.8-0.8-1.4-1.2-2.2
			c-0.5-0.8,0.6-1.7,1.3-2c0.7,0.1,3.2,0.7,3.3-0.6c0-1.1,0.4-2.3,1.6-2.5l1-1.4c-0.2-0.2-0.6-0.4-0.7-0.6c-0.1-0.2-0.2-0.4-0.2-0.6
			c-0.2-0.6-0.7-0.6-1.2-1c-0.1,0-0.1-0.1-0.2-0.1c0-0.2,0-0.6,0.1-0.7c0.2-0.4,0.2-0.4,0.4-0.8l-1-1.1l0.7-1.8
			c-1.2-0.6-2.8,0.4-3.1,1.6c-0.2,0.7-0.4,0.8-1.1,1.1c-0.6-1.1-2.5-1.8-3.5-2.9c-1-1.2-3.3-2.5-1.4-3.9c1-0.7,1.7-1.4,0.5-2.4
			c-0.4-0.2,0-1,0-1.2c0.2-0.7,0.1-1.3,0.4-2.2l0.2-2.3l2.3,0.1c0.1,0.2,0.4,0.8,0.6,1c0.2,0.1,0.6-0.1,1,0c0.5,0.2,0.4,1.6,1,1.9
			c0.7,0.5,1.7,0.2,2.4,0.2c0.2-0.4,0.5-1.1,1-1.1c0.8,0,1.1,1.2,1.6,1.6c0.7,0.7,0.8,0,1.1-0.6c0.7-1.6,2.6-2.6,4.2-3.3l-0.5-3.6
			l2.3-1.8l1.9-0.2c0.5-0.2,0.7-0.4,1.2-0.5c0.7-0.1,0.7-0.4,0.8-1c0.2-0.7,1-1.3,1.7-1.3c0.4,0,0.5,0.1,0.8,0.1
			c0.7,0.1,1.1,0.1,1.7-0.1l0.7-0.7c0-2.3,1.2-1.1,2-1.9c0.8-1,0.4-2.3,1-2.9c0.4-0.4,1.6-1,2.2-1c1.2,0.1,1.3,1.6,2.9,1.1
			c1.2-0.4,3.8-0.1,3.7-2.3c0-0.6-1-1.8,0-2.2c1.1-0.4,1.7-0.1,2.6-1c-1.3-1.3-3.8-3.9-5.6-4.7c-0.7-0.4-1.7-0.2-2.3-1
			c-0.6-0.6-0.7-1.6-1.7-1.8c-0.4-0.1-1.8-1.8-2.2-2.3c-0.5-0.5-1.2-4.5-1-5.3c-1,0-2.8-0.2-3.6,0.5c-0.8,0.7-0.7,1.6-1.9,1.9
			c-0.8,0.2-1.2,0-2,0c-1,0-1.3,1.6-1.6,1.6c-0.4,0-1.1-0.6-1.4-0.7l0.1-1.8c-0.4-0.1-0.2-2-0.4-2.5c-0.4-1-1.8-1-2.6-0.7
			c-0.6,0.2-1.3,1.2-1.8,1.3c-0.6,0.1-1.2,0.2-1.8,0.2c-0.7,0.1-1.2-0.1-1.9-0.1c0.5-1,1.4-2.4,2.3-3.2c0.7-0.7,1.8-0.7,2.8-0.7
			c0,0,1.9-2.8,2.5-3.2c1.2-1,1.6-1.6,3.2-1.8c1.4-0.2,3.8-2.6,5.1-3.5c1.9-1.3,2.6-1.7,2.6-3.8h0.1l1.8-0.6l1.3-2l-0.2-3.5
			c1.4,0.7,2.3-0.1,3.6-0.4c0.5-0.1,2-0.7,2,0.1c0,1.9,0.5,2.6,2.5,1.9c1-0.4,1.4-1,2.5-0.7c0.7,0.1,1.3,0.6,2.2,0.6
			c0.1,0.6,0.5,2,0,2.5c-0.4,0.4-1.2,0.2-0.6,1.1c0.4,0.6-0.4,1-0.8,1.1c-0.6,0.1-1,1.4-1.3,2c-0.4,0.7-0.2,1.2-1,1.8
			c-1.3,1-0.5,2.5,0.1,3.6c0.4,0.6-0.6,1.1-1.1,1.3c-1.1,0.5-0.8,1.1-0.8,2.2c0.6-0.1,0.5-0.1,1-0.5c0.4-0.2,1.7-0.5,2-0.1
			c0.2,0.2,0.4,0.5,0.7,0.5c0.5,0,1.1-0.6,1.6-0.7c1.1-0.1,1-0.5,1.7-1c0.6-0.5,1.1-1.1,0.8-1.8c-0.4-1-0.2-2.6,0.8-3.1
			c0.4-0.1,1,0.1,1.2,0.2c0.6,0.4,1.1,0.5,1.7,0.5c0.7-0.1,1.6-0.1,2.2-0.6c0.6-0.6,1.2-1.4,1.8-2
			C207.1,384.2,208.2,384.7,208.7,384.7z M191.4,351.9c-0.1,0-0.2-0.1-0.4-0.1C191.2,351.9,191.3,351.9,191.4,351.9z M171.6,362.1
			c-1.6,0.4-3.7,1.4-5.3,1.2c0-0.5,0-1.1-0.1-1.4c-0.1-0.4-0.7-0.5-1-0.7c-0.7-0.5-0.7-2.2-0.2-2.8c0.6-0.6-0.2-0.4-0.4-0.8
			c-0.1-1,0.6-1.2,1.3-1.3c1-0.7,1.1-2,2.2-2.6c0.4-0.2,0.7-0.1,1.2-0.2c0.7-0.2,1.1-0.6,1.7-1.1l1.3-1.1l1.9,1
			c-0.4,1-0.5,2.3-0.7,3.3c-0.2,1.1-0.2,2.6,1,3.2c0.5,0.2,1.2,0.1,1.4,0.6c0.2,0.5,0.2,1.6,0.2,2.2v1.9c-0.6-0.6-1.2-1.1-1.9-1.4
			C173.3,361.2,172.4,361.8,171.6,362.1z M192.2,352.3c0,0,0.1,0,0.1,0.1C192.2,352.3,192.2,352.3,192.2,352.3z M191.6,352
			c0.1,0,0.1,0,0.2,0.1C191.8,352,191.7,352,191.6,352z"/>
		<path class="st3" d="M195,173.9c0.1-1.9,7.3-1.1,9-1.7c1.8-0.6,1.7-2.4,3.3-3.1c1.6-0.6,5-3.2,5-5c-3.1-0.8,0-3.5,2.2-4.2
			c2.6-0.7,7.7-2.5,9-4.9c0.6-1.1,4.8-0.2,4.3-2.2c-1.8-0.2-3-1.4-4.8-0.7c-1.8,0.7-5.6,1.2-6.8,2.3c-1.6,1.4-3.5,2.6-5.1,3.8
			c-2.5,1.6-3.9,4.1-6.3,5.7c-1.6,1.1-5.7,5.1-7.4,4.9l-2.6,2.3C193.3,172.8,194.8,177.9,195,173.9z"/>
		<path class="st3" d="M175.9,226c0.5-0.2,1.4-1.2,2.2-1.6s2.8-0.7,3.1-1.6c0.2-0.7-2-2.9-2.3-3.8c1.2,0.2,4.5,2.9,5.5,2.3
			c0.8-0.5,2-3.3,2.9-4.4c1-1.2,1-2.5,2.8-2c3.2,0.8,6.6-5.5,7.1-7.8l0.2-0.7c1.2-2.2,3.6-2,3.1-5.1c-0.4-1.8-1-5.7,0.1-7.4
			c0.8-1.3,1.6-2.3,0.5-3.7c-1.4-1.8-3.6-2.8-4.5-4.8c-1.4-3.1,1.6-5.1-3.1-5.1c-0.6,0-4.3,5-4.8,6.1c-0.8,1.8-3,2.6,0.2,2.6
			c-0.2,0.6-1.4,1.8-1.9,2.3c-1,0.8-0.4-1.1-0.7-1.1c-0.5,0-1.2,0.6-1.6,1c-2.6,1.9-3.3,6.6-5.5,9c-1.8,2-1.9,4.5-3.3,6.5
			c-1.1,3.5-2.4,5.7-2.4,9.4C173.4,216.9,173.5,226.8,175.9,226z"/>
		<path class="st3" d="M241.8,142.3c1.1-0.7,1.8-0.5,2.9-1.6c2.4-2.4,1.8-1.3,4.1-1.8c1.6-0.4,1.9-1.8,3.9-1.6
			c1.9,0.2,6.5-1.8,8.3-2.6c5.1-2.3,6.3-5.4,12.9-5.4c0.8,0,5.6,0.2,5.9-0.6c0.2-0.7-2.4-1-2.4-1.8c0.1-1,3.1-1.1,3.7-1.9l0.6,0.4
			c1.7-1.4,4.2-0.4,6.1-1.3c0.2-2,4.8-3.1,1.3-4.2c-0.7-0.2-0.6-0.4-1.1-0.8c-2.6,0-5.4,2.2-8.1,1.3c-8.6,3-16.6,8-26.1,8.1
			c-3.7,1.9-8.5,0.8-12.4,3.5c-1.1,0.7-5.9,8.1-5.4,9.1C238.5,141.9,238.4,144.6,241.8,142.3z"/>
	</g>
	<path class="st3" d="M156.3,432.6c0.1,0.2,0.4,0.8,0.6,1c0.2,0.1,0.6-0.1,1,0c0.5,0.2,0.4,1.6,1,1.9c0.7,0.5,1.7,0.2,2.4,0.2l0,0
		c0,1,0.4,1.8,1.2,2.3c0.4,0.1,1.1,0.5,1.2,0.8c0.2,0.8,0.5,1.1,1.2,1.4c0.8,0.4,2.2,0.6,2.6,1.3l0,0L165,443l-3.1,1.6l0,0
		c-1.2-0.6-2.8,0.4-3.1,1.6c-0.2,0.7-0.4,0.8-1.1,1.1l0,0c-0.6-1.1-2.5-1.8-3.5-2.9c-1-1.2-3.3-2.5-1.4-3.9c1-0.7,1.7-1.4,0.5-2.4
		c-0.4-0.2,0-1,0-1.2c0.2-0.7,0.1-1.3,0.4-2.2l0,0l0.2-2.3L156.3,432.6L156.3,432.6z"/>
</g>
</svg>
